<svg width="379" height="284" viewBox="0 0 379 284" fill="none" xmlns="http://www.w3.org/2000/svg">
<g opacity="0.25">
<mask id="mask0_912_10375" style="mask-type:alpha" maskUnits="userSpaceOnUse" x="47" y="0" width="284" height="284">
<rect width="284" height="284" transform="translate(47)" fill="url(#paint0_radial_912_10375)"/>
</mask>
<g mask="url(#mask0_912_10375)">
<g clip-path="url(#clip0_912_10375)">
<mask id="path-3-inside-1_912_10375" fill="white">
<path d="M37.1987 0H56.1321V18.9333H37.1987V0Z"/>
</mask>
<path d="M56.1321 18.9333V19.1306H56.3293V18.9333H56.1321ZM56.1321 0H55.9348V18.9333H56.1321H56.3293V0H56.1321ZM56.1321 18.9333V18.7361H37.1987V18.9333V19.1306H56.1321V18.9333Z" fill="#007E77" mask="url(#path-3-inside-1_912_10375)"/>
<mask id="path-5-inside-2_912_10375" fill="white">
<path d="M56.1318 0H75.0652V18.9333H56.1318V0Z"/>
</mask>
<path d="M75.0652 18.9333V19.1306H75.2624V18.9333H75.0652ZM75.0652 0H74.8679V18.9333H75.0652H75.2624V0H75.0652ZM75.0652 18.9333V18.7361H56.1318V18.9333V19.1306H75.0652V18.9333Z" fill="#007E77" mask="url(#path-5-inside-2_912_10375)"/>
<mask id="path-7-inside-3_912_10375" fill="white">
<path d="M75.0654 0H93.9988V18.9333H75.0654V0Z"/>
</mask>
<path d="M93.9988 18.9333V19.1306H94.196V18.9333H93.9988ZM93.9988 0H93.8015V18.9333H93.9988H94.196V0H93.9988ZM93.9988 18.9333V18.7361H75.0654V18.9333V19.1306H93.9988V18.9333Z" fill="#007E77" mask="url(#path-7-inside-3_912_10375)"/>
<mask id="path-9-inside-4_912_10375" fill="white">
<path d="M93.9985 0H112.932V18.9333H93.9985V0Z"/>
</mask>
<path d="M112.932 18.9333V19.1306H113.129V18.9333H112.932ZM112.932 0H112.735V18.9333H112.932H113.129V0H112.932ZM112.932 18.9333V18.7361H93.9985V18.9333V19.1306H112.932V18.9333Z" fill="#007E77" mask="url(#path-9-inside-4_912_10375)"/>
<mask id="path-11-inside-5_912_10375" fill="white">
<path d="M112.932 0H131.865V18.9333H112.932V0Z"/>
</mask>
<path d="M131.865 18.9333V19.1306H132.063V18.9333H131.865ZM131.865 0H131.668V18.9333H131.865H132.063V0H131.865ZM131.865 18.9333V18.7361H112.932V18.9333V19.1306H131.865V18.9333Z" fill="#007E77" mask="url(#path-11-inside-5_912_10375)"/>
<mask id="path-13-inside-6_912_10375" fill="white">
<path d="M131.865 0H150.799V18.9333H131.865V0Z"/>
</mask>
<path d="M150.799 18.9333V19.1306H150.996V18.9333H150.799ZM150.799 0H150.601V18.9333H150.799H150.996V0H150.799ZM150.799 18.9333V18.7361H131.865V18.9333V19.1306H150.799V18.9333Z" fill="#007E77" mask="url(#path-13-inside-6_912_10375)"/>
<mask id="path-15-inside-7_912_10375" fill="white">
<path d="M150.799 0H169.732V18.9333H150.799V0Z"/>
</mask>
<path d="M169.732 18.9333V19.1306H169.929V18.9333H169.732ZM169.732 0H169.535V18.9333H169.732H169.929V0H169.732ZM169.732 18.9333V18.7361H150.799V18.9333V19.1306H169.732V18.9333Z" fill="#007E77" mask="url(#path-15-inside-7_912_10375)"/>
<mask id="path-17-inside-8_912_10375" fill="white">
<path d="M169.732 0H188.665V18.9333H169.732V0Z"/>
</mask>
<path d="M188.665 18.9333V19.1306H188.862V18.9333H188.665ZM188.665 0H188.468V18.9333H188.665H188.862V0H188.665ZM188.665 18.9333V18.7361H169.732V18.9333V19.1306H188.665V18.9333Z" fill="#007E77" mask="url(#path-17-inside-8_912_10375)"/>
<mask id="path-19-inside-9_912_10375" fill="white">
<path d="M188.666 0H207.599V18.9333H188.666V0Z"/>
</mask>
<path d="M207.599 18.9333V19.1306H207.796V18.9333H207.599ZM207.599 0H207.402V18.9333H207.599H207.796V0H207.599ZM207.599 18.9333V18.7361H188.666V18.9333V19.1306H207.599V18.9333Z" fill="#007E77" mask="url(#path-19-inside-9_912_10375)"/>
<mask id="path-21-inside-10_912_10375" fill="white">
<path d="M207.599 0H226.532V18.9333H207.599V0Z"/>
</mask>
<path d="M226.532 18.9333V19.1306H226.729V18.9333H226.532ZM226.532 0H226.335V18.9333H226.532H226.729V0H226.532ZM226.532 18.9333V18.7361H207.599V18.9333V19.1306H226.532V18.9333Z" fill="#007E77" mask="url(#path-21-inside-10_912_10375)"/>
<mask id="path-23-inside-11_912_10375" fill="white">
<path d="M226.532 0H245.466V18.9333H226.532V0Z"/>
</mask>
<path d="M245.466 18.9333V19.1306H245.663V18.9333H245.466ZM245.466 0H245.268V18.9333H245.466H245.663V0H245.466ZM245.466 18.9333V18.7361H226.532V18.9333V19.1306H245.466V18.9333Z" fill="#007E77" mask="url(#path-23-inside-11_912_10375)"/>
<mask id="path-25-inside-12_912_10375" fill="white">
<path d="M245.465 0H264.399V18.9333H245.465V0Z"/>
</mask>
<path d="M264.399 18.9333V19.1306H264.596V18.9333H264.399ZM264.399 0H264.201V18.9333H264.399H264.596V0H264.399ZM264.399 18.9333V18.7361H245.465V18.9333V19.1306H264.399V18.9333Z" fill="#007E77" mask="url(#path-25-inside-12_912_10375)"/>
<mask id="path-27-inside-13_912_10375" fill="white">
<path d="M264.399 0H283.332V18.9333H264.399V0Z"/>
</mask>
<path d="M283.332 18.9333V19.1306H283.529V18.9333H283.332ZM283.332 0H283.135V18.9333H283.332H283.529V0H283.332ZM283.332 18.9333V18.7361H264.399V18.9333V19.1306H283.332V18.9333Z" fill="#007E77" mask="url(#path-27-inside-13_912_10375)"/>
<mask id="path-29-inside-14_912_10375" fill="white">
<path d="M283.332 0H302.265V18.9333H283.332V0Z"/>
</mask>
<path d="M302.265 18.9333V19.1306H302.463V18.9333H302.265ZM302.265 0H302.068V18.9333H302.265H302.463V0H302.265ZM302.265 18.9333V18.7361H283.332V18.9333V19.1306H302.265V18.9333Z" fill="#007E77" mask="url(#path-29-inside-14_912_10375)"/>
<mask id="path-31-inside-15_912_10375" fill="white">
<path d="M302.266 0H321.199V18.9333H302.266V0Z"/>
</mask>
<path d="M321.199 18.9333V19.1306H321.396V18.9333H321.199ZM321.199 0H321.002V18.9333H321.199H321.396V0H321.199ZM321.199 18.9333V18.7361H302.266V18.9333V19.1306H321.199V18.9333Z" fill="#007E77" mask="url(#path-31-inside-15_912_10375)"/>
<mask id="path-33-inside-16_912_10375" fill="white">
<path d="M321.199 0H340.132V18.9333H321.199V0Z"/>
</mask>
<path d="M340.132 18.9333V19.1306H340.329V18.9333H340.132ZM340.132 0H339.935V18.9333H340.132H340.329V0H340.132ZM340.132 18.9333V18.7361H321.199V18.9333V19.1306H340.132V18.9333Z" fill="#007E77" mask="url(#path-33-inside-16_912_10375)"/>
<mask id="path-35-inside-17_912_10375" fill="white">
<path d="M37.1987 18.9336H56.1321V37.8669H37.1987V18.9336Z"/>
</mask>
<path d="M56.1321 37.8669V38.0641H56.3293V37.8669H56.1321ZM56.1321 18.9336H55.9348V37.8669H56.1321H56.3293V18.9336H56.1321ZM56.1321 37.8669V37.6697H37.1987V37.8669V38.0641H56.1321V37.8669Z" fill="#007E77" mask="url(#path-35-inside-17_912_10375)"/>
<mask id="path-37-inside-18_912_10375" fill="white">
<path d="M56.1318 18.9336H75.0652V37.8669H56.1318V18.9336Z"/>
</mask>
<path d="M75.0652 37.8669V38.0641H75.2624V37.8669H75.0652ZM75.0652 18.9336H74.8679V37.8669H75.0652H75.2624V18.9336H75.0652ZM75.0652 37.8669V37.6697H56.1318V37.8669V38.0641H75.0652V37.8669Z" fill="#007E77" mask="url(#path-37-inside-18_912_10375)"/>
<mask id="path-39-inside-19_912_10375" fill="white">
<path d="M75.0654 18.9336H93.9988V37.8669H75.0654V18.9336Z"/>
</mask>
<path d="M93.9988 37.8669V38.0641H94.196V37.8669H93.9988ZM93.9988 18.9336H93.8015V37.8669H93.9988H94.196V18.9336H93.9988ZM93.9988 37.8669V37.6697H75.0654V37.8669V38.0641H93.9988V37.8669Z" fill="#007E77" mask="url(#path-39-inside-19_912_10375)"/>
<mask id="path-41-inside-20_912_10375" fill="white">
<path d="M93.9985 18.9336H112.932V37.8669H93.9985V18.9336Z"/>
</mask>
<path d="M93.9985 18.9336H112.932V37.8669H93.9985V18.9336Z" fill="#007E77"/>
<path d="M112.932 37.8669V38.0641H113.129V37.8669H112.932ZM112.932 18.9336H112.735V37.8669H112.932H113.129V18.9336H112.932ZM112.932 37.8669V37.6697H93.9985V37.8669V38.0641H112.932V37.8669Z" fill="#007E77" mask="url(#path-41-inside-20_912_10375)"/>
<mask id="path-43-inside-21_912_10375" fill="white">
<path d="M112.932 18.9336H131.865V37.8669H112.932V18.9336Z"/>
</mask>
<path d="M131.865 37.8669V38.0641H132.063V37.8669H131.865ZM131.865 18.9336H131.668V37.8669H131.865H132.063V18.9336H131.865ZM131.865 37.8669V37.6697H112.932V37.8669V38.0641H131.865V37.8669Z" fill="#007E77" mask="url(#path-43-inside-21_912_10375)"/>
<mask id="path-45-inside-22_912_10375" fill="white">
<path d="M131.865 18.9336H150.799V37.8669H131.865V18.9336Z"/>
</mask>
<path d="M150.799 37.8669V38.0641H150.996V37.8669H150.799ZM150.799 18.9336H150.601V37.8669H150.799H150.996V18.9336H150.799ZM150.799 37.8669V37.6697H131.865V37.8669V38.0641H150.799V37.8669Z" fill="#007E77" mask="url(#path-45-inside-22_912_10375)"/>
<mask id="path-47-inside-23_912_10375" fill="white">
<path d="M150.799 18.9336H169.732V37.8669H150.799V18.9336Z"/>
</mask>
<path d="M169.732 37.8669V38.0641H169.929V37.8669H169.732ZM169.732 18.9336H169.535V37.8669H169.732H169.929V18.9336H169.732ZM169.732 37.8669V37.6697H150.799V37.8669V38.0641H169.732V37.8669Z" fill="#007E77" mask="url(#path-47-inside-23_912_10375)"/>
<mask id="path-49-inside-24_912_10375" fill="white">
<path d="M169.732 18.9336H188.665V37.8669H169.732V18.9336Z"/>
</mask>
<path d="M188.665 37.8669V38.0641H188.862V37.8669H188.665ZM188.665 18.9336H188.468V37.8669H188.665H188.862V18.9336H188.665ZM188.665 37.8669V37.6697H169.732V37.8669V38.0641H188.665V37.8669Z" fill="#007E77" mask="url(#path-49-inside-24_912_10375)"/>
<mask id="path-51-inside-25_912_10375" fill="white">
<path d="M188.666 18.9336H207.599V37.8669H188.666V18.9336Z"/>
</mask>
<path d="M207.599 37.8669V38.0641H207.796V37.8669H207.599ZM207.599 18.9336H207.402V37.8669H207.599H207.796V18.9336H207.599ZM207.599 37.8669V37.6697H188.666V37.8669V38.0641H207.599V37.8669Z" fill="#007E77" mask="url(#path-51-inside-25_912_10375)"/>
<mask id="path-53-inside-26_912_10375" fill="white">
<path d="M207.599 18.9336H226.532V37.8669H207.599V18.9336Z"/>
</mask>
<path d="M226.532 37.8669V38.0641H226.729V37.8669H226.532ZM226.532 18.9336H226.335V37.8669H226.532H226.729V18.9336H226.532ZM226.532 37.8669V37.6697H207.599V37.8669V38.0641H226.532V37.8669Z" fill="#007E77" mask="url(#path-53-inside-26_912_10375)"/>
<mask id="path-55-inside-27_912_10375" fill="white">
<path d="M226.532 18.9336H245.466V37.8669H226.532V18.9336Z"/>
</mask>
<path d="M245.466 37.8669V38.0641H245.663V37.8669H245.466ZM245.466 18.9336H245.268V37.8669H245.466H245.663V18.9336H245.466ZM245.466 37.8669V37.6697H226.532V37.8669V38.0641H245.466V37.8669Z" fill="#007E77" mask="url(#path-55-inside-27_912_10375)"/>
<mask id="path-57-inside-28_912_10375" fill="white">
<path d="M245.465 18.9336H264.399V37.8669H245.465V18.9336Z"/>
</mask>
<path d="M264.399 37.8669V38.0641H264.596V37.8669H264.399ZM264.399 18.9336H264.201V37.8669H264.399H264.596V18.9336H264.399ZM264.399 37.8669V37.6697H245.465V37.8669V38.0641H264.399V37.8669Z" fill="#007E77" mask="url(#path-57-inside-28_912_10375)"/>
<mask id="path-59-inside-29_912_10375" fill="white">
<path d="M264.399 18.9336H283.332V37.8669H264.399V18.9336Z"/>
</mask>
<path d="M264.399 18.9336H283.332V37.8669H264.399V18.9336Z" fill="#007E77"/>
<path d="M283.332 37.8669V38.0641H283.529V37.8669H283.332ZM283.332 18.9336H283.135V37.8669H283.332H283.529V18.9336H283.332ZM283.332 37.8669V37.6697H264.399V37.8669V38.0641H283.332V37.8669Z" fill="#007E77" mask="url(#path-59-inside-29_912_10375)"/>
<mask id="path-61-inside-30_912_10375" fill="white">
<path d="M283.332 18.9336H302.265V37.8669H283.332V18.9336Z"/>
</mask>
<path d="M302.265 37.8669V38.0641H302.463V37.8669H302.265ZM302.265 18.9336H302.068V37.8669H302.265H302.463V18.9336H302.265ZM302.265 37.8669V37.6697H283.332V37.8669V38.0641H302.265V37.8669Z" fill="#007E77" mask="url(#path-61-inside-30_912_10375)"/>
<mask id="path-63-inside-31_912_10375" fill="white">
<path d="M302.266 18.9336H321.199V37.8669H302.266V18.9336Z"/>
</mask>
<path d="M321.199 37.8669V38.0641H321.396V37.8669H321.199ZM321.199 18.9336H321.002V37.8669H321.199H321.396V18.9336H321.199ZM321.199 37.8669V37.6697H302.266V37.8669V38.0641H321.199V37.8669Z" fill="#007E77" mask="url(#path-63-inside-31_912_10375)"/>
<mask id="path-65-inside-32_912_10375" fill="white">
<path d="M321.199 18.9336H340.132V37.8669H321.199V18.9336Z"/>
</mask>
<path d="M340.132 37.8669V38.0641H340.329V37.8669H340.132ZM340.132 18.9336H339.935V37.8669H340.132H340.329V18.9336H340.132ZM340.132 37.8669V37.6697H321.199V37.8669V38.0641H340.132V37.8669Z" fill="#007E77" mask="url(#path-65-inside-32_912_10375)"/>
<mask id="path-67-inside-33_912_10375" fill="white">
<path d="M37.1987 37.8662H56.1321V56.7995H37.1987V37.8662Z"/>
</mask>
<path d="M56.1321 56.7995V56.9968H56.3293V56.7995H56.1321ZM56.1321 37.8662H55.9348V56.7995H56.1321H56.3293V37.8662H56.1321ZM56.1321 56.7995V56.6023H37.1987V56.7995V56.9968H56.1321V56.7995Z" fill="#007E77" mask="url(#path-67-inside-33_912_10375)"/>
<mask id="path-69-inside-34_912_10375" fill="white">
<path d="M56.1318 37.8662H75.0652V56.7995H56.1318V37.8662Z"/>
</mask>
<path d="M75.0652 56.7995V56.9968H75.2624V56.7995H75.0652ZM75.0652 37.8662H74.8679V56.7995H75.0652H75.2624V37.8662H75.0652ZM75.0652 56.7995V56.6023H56.1318V56.7995V56.9968H75.0652V56.7995Z" fill="#007E77" mask="url(#path-69-inside-34_912_10375)"/>
<mask id="path-71-inside-35_912_10375" fill="white">
<path d="M75.0654 37.8662H93.9988V56.7995H75.0654V37.8662Z"/>
</mask>
<path d="M93.9988 56.7995V56.9968H94.196V56.7995H93.9988ZM93.9988 37.8662H93.8015V56.7995H93.9988H94.196V37.8662H93.9988ZM93.9988 56.7995V56.6023H75.0654V56.7995V56.9968H93.9988V56.7995Z" fill="#007E77" mask="url(#path-71-inside-35_912_10375)"/>
<mask id="path-73-inside-36_912_10375" fill="white">
<path d="M93.9985 37.8662H112.932V56.7995H93.9985V37.8662Z"/>
</mask>
<path d="M112.932 56.7995V56.9968H113.129V56.7995H112.932ZM112.932 37.8662H112.735V56.7995H112.932H113.129V37.8662H112.932ZM112.932 56.7995V56.6023H93.9985V56.7995V56.9968H112.932V56.7995Z" fill="#007E77" mask="url(#path-73-inside-36_912_10375)"/>
<mask id="path-75-inside-37_912_10375" fill="white">
<path d="M112.932 37.8662H131.865V56.7995H112.932V37.8662Z"/>
</mask>
<path d="M131.865 56.7995V56.9968H132.063V56.7995H131.865ZM131.865 37.8662H131.668V56.7995H131.865H132.063V37.8662H131.865ZM131.865 56.7995V56.6023H112.932V56.7995V56.9968H131.865V56.7995Z" fill="#007E77" mask="url(#path-75-inside-37_912_10375)"/>
<mask id="path-77-inside-38_912_10375" fill="white">
<path d="M131.865 37.8662H150.799V56.7995H131.865V37.8662Z"/>
</mask>
<path d="M150.799 56.7995V56.9968H150.996V56.7995H150.799ZM150.799 37.8662H150.601V56.7995H150.799H150.996V37.8662H150.799ZM150.799 56.7995V56.6023H131.865V56.7995V56.9968H150.799V56.7995Z" fill="#007E77" mask="url(#path-77-inside-38_912_10375)"/>
<mask id="path-79-inside-39_912_10375" fill="white">
<path d="M150.799 37.8662H169.732V56.7995H150.799V37.8662Z"/>
</mask>
<path d="M169.732 56.7995V56.9968H169.929V56.7995H169.732ZM169.732 37.8662H169.535V56.7995H169.732H169.929V37.8662H169.732ZM169.732 56.7995V56.6023H150.799V56.7995V56.9968H169.732V56.7995Z" fill="#007E77" mask="url(#path-79-inside-39_912_10375)"/>
<mask id="path-81-inside-40_912_10375" fill="white">
<path d="M169.732 37.8662H188.665V56.7995H169.732V37.8662Z"/>
</mask>
<path d="M188.665 56.7995V56.9968H188.862V56.7995H188.665ZM188.665 37.8662H188.468V56.7995H188.665H188.862V37.8662H188.665ZM188.665 56.7995V56.6023H169.732V56.7995V56.9968H188.665V56.7995Z" fill="#007E77" mask="url(#path-81-inside-40_912_10375)"/>
<mask id="path-83-inside-41_912_10375" fill="white">
<path d="M188.666 37.8662H207.599V56.7995H188.666V37.8662Z"/>
</mask>
<path d="M188.666 37.8662H207.599V56.7995H188.666V37.8662Z" fill="#007E77"/>
<path d="M207.599 56.7995V56.9968H207.796V56.7995H207.599ZM207.599 37.8662H207.402V56.7995H207.599H207.796V37.8662H207.599ZM207.599 56.7995V56.6023H188.666V56.7995V56.9968H207.599V56.7995Z" fill="#007E77" mask="url(#path-83-inside-41_912_10375)"/>
<mask id="path-85-inside-42_912_10375" fill="white">
<path d="M207.599 37.8662H226.532V56.7995H207.599V37.8662Z"/>
</mask>
<path d="M226.532 56.7995V56.9968H226.729V56.7995H226.532ZM226.532 37.8662H226.335V56.7995H226.532H226.729V37.8662H226.532ZM226.532 56.7995V56.6023H207.599V56.7995V56.9968H226.532V56.7995Z" fill="#007E77" mask="url(#path-85-inside-42_912_10375)"/>
<mask id="path-87-inside-43_912_10375" fill="white">
<path d="M226.532 37.8662H245.466V56.7995H226.532V37.8662Z"/>
</mask>
<path d="M245.466 56.7995V56.9968H245.663V56.7995H245.466ZM245.466 37.8662H245.268V56.7995H245.466H245.663V37.8662H245.466ZM245.466 56.7995V56.6023H226.532V56.7995V56.9968H245.466V56.7995Z" fill="#007E77" mask="url(#path-87-inside-43_912_10375)"/>
<mask id="path-89-inside-44_912_10375" fill="white">
<path d="M245.465 37.8662H264.399V56.7995H245.465V37.8662Z"/>
</mask>
<path d="M264.399 56.7995V56.9968H264.596V56.7995H264.399ZM264.399 37.8662H264.201V56.7995H264.399H264.596V37.8662H264.399ZM264.399 56.7995V56.6023H245.465V56.7995V56.9968H264.399V56.7995Z" fill="#007E77" mask="url(#path-89-inside-44_912_10375)"/>
<mask id="path-91-inside-45_912_10375" fill="white">
<path d="M264.398 37.8662H283.332V56.7995H264.398V37.8662Z"/>
</mask>
<path d="M283.332 56.7995V56.9968H283.529V56.7995H283.332ZM283.332 37.8662H283.135V56.7995H283.332H283.529V37.8662H283.332ZM283.332 56.7995V56.6023H264.398V56.7995V56.9968H283.332V56.7995Z" fill="#007E77" mask="url(#path-91-inside-45_912_10375)"/>
<mask id="path-93-inside-46_912_10375" fill="white">
<path d="M283.332 37.8662H302.265V56.7995H283.332V37.8662Z"/>
</mask>
<path d="M302.265 56.7995V56.9968H302.463V56.7995H302.265ZM302.265 37.8662H302.068V56.7995H302.265H302.463V37.8662H302.265ZM302.265 56.7995V56.6023H283.332V56.7995V56.9968H302.265V56.7995Z" fill="#007E77" mask="url(#path-93-inside-46_912_10375)"/>
<mask id="path-95-inside-47_912_10375" fill="white">
<path d="M302.265 37.8662H321.198V56.7995H302.265V37.8662Z"/>
</mask>
<path d="M321.198 56.7995V56.9968H321.396V56.7995H321.198ZM321.198 37.8662H321.001V56.7995H321.198H321.396V37.8662H321.198ZM321.198 56.7995V56.6023H302.265V56.7995V56.9968H321.198V56.7995Z" fill="#007E77" mask="url(#path-95-inside-47_912_10375)"/>
<mask id="path-97-inside-48_912_10375" fill="white">
<path d="M321.199 37.8662H340.132V56.7995H321.199V37.8662Z"/>
</mask>
<path d="M340.132 56.7995V56.9968H340.329V56.7995H340.132ZM340.132 37.8662H339.935V56.7995H340.132H340.329V37.8662H340.132ZM340.132 56.7995V56.6023H321.199V56.7995V56.9968H340.132V56.7995Z" fill="#007E77" mask="url(#path-97-inside-48_912_10375)"/>
<mask id="path-99-inside-49_912_10375" fill="white">
<path d="M37.1987 56.7998H56.1321V75.7331H37.1987V56.7998Z"/>
</mask>
<path d="M56.1321 75.7331V75.9304H56.3293V75.7331H56.1321ZM56.1321 56.7998H55.9348V75.7331H56.1321H56.3293V56.7998H56.1321ZM56.1321 75.7331V75.5359H37.1987V75.7331V75.9304H56.1321V75.7331Z" fill="#007E77" mask="url(#path-99-inside-49_912_10375)"/>
<mask id="path-101-inside-50_912_10375" fill="white">
<path d="M56.1318 56.7998H75.0652V75.7331H56.1318V56.7998Z"/>
</mask>
<path d="M75.0652 75.7331V75.9304H75.2624V75.7331H75.0652ZM75.0652 56.7998H74.8679V75.7331H75.0652H75.2624V56.7998H75.0652ZM75.0652 75.7331V75.5359H56.1318V75.7331V75.9304H75.0652V75.7331Z" fill="#007E77" mask="url(#path-101-inside-50_912_10375)"/>
<mask id="path-103-inside-51_912_10375" fill="white">
<path d="M75.0654 56.7998H93.9988V75.7331H75.0654V56.7998Z"/>
</mask>
<path d="M93.9988 75.7331V75.9304H94.196V75.7331H93.9988ZM93.9988 56.7998H93.8015V75.7331H93.9988H94.196V56.7998H93.9988ZM93.9988 75.7331V75.5359H75.0654V75.7331V75.9304H93.9988V75.7331Z" fill="#007E77" mask="url(#path-103-inside-51_912_10375)"/>
<mask id="path-105-inside-52_912_10375" fill="white">
<path d="M93.9985 56.7998H112.932V75.7331H93.9985V56.7998Z"/>
</mask>
<path d="M112.932 75.7331V75.9304H113.129V75.7331H112.932ZM112.932 56.7998H112.735V75.7331H112.932H113.129V56.7998H112.932ZM112.932 75.7331V75.5359H93.9985V75.7331V75.9304H112.932V75.7331Z" fill="#007E77" mask="url(#path-105-inside-52_912_10375)"/>
<mask id="path-107-inside-53_912_10375" fill="white">
<path d="M112.932 56.7998H131.865V75.7331H112.932V56.7998Z"/>
</mask>
<path d="M131.865 75.7331V75.9304H132.063V75.7331H131.865ZM131.865 56.7998H131.668V75.7331H131.865H132.063V56.7998H131.865ZM131.865 75.7331V75.5359H112.932V75.7331V75.9304H131.865V75.7331Z" fill="#007E77" mask="url(#path-107-inside-53_912_10375)"/>
<mask id="path-109-inside-54_912_10375" fill="white">
<path d="M131.865 56.7998H150.799V75.7331H131.865V56.7998Z"/>
</mask>
<path d="M150.799 75.7331V75.9304H150.996V75.7331H150.799ZM150.799 56.7998H150.601V75.7331H150.799H150.996V56.7998H150.799ZM150.799 75.7331V75.5359H131.865V75.7331V75.9304H150.799V75.7331Z" fill="#007E77" mask="url(#path-109-inside-54_912_10375)"/>
<mask id="path-111-inside-55_912_10375" fill="white">
<path d="M150.799 56.7998H169.732V75.7331H150.799V56.7998Z"/>
</mask>
<path d="M169.732 75.7331V75.9304H169.929V75.7331H169.732ZM169.732 56.7998H169.535V75.7331H169.732H169.929V56.7998H169.732ZM169.732 75.7331V75.5359H150.799V75.7331V75.9304H169.732V75.7331Z" fill="#007E77" mask="url(#path-111-inside-55_912_10375)"/>
<mask id="path-113-inside-56_912_10375" fill="white">
<path d="M169.732 56.7998H188.665V75.7331H169.732V56.7998Z"/>
</mask>
<path d="M188.665 75.7331V75.9304H188.862V75.7331H188.665ZM188.665 56.7998H188.468V75.7331H188.665H188.862V56.7998H188.665ZM188.665 75.7331V75.5359H169.732V75.7331V75.9304H188.665V75.7331Z" fill="#007E77" mask="url(#path-113-inside-56_912_10375)"/>
<mask id="path-115-inside-57_912_10375" fill="white">
<path d="M188.666 56.7998H207.599V75.7331H188.666V56.7998Z"/>
</mask>
<path d="M207.599 75.7331V75.9304H207.796V75.7331H207.599ZM207.599 56.7998H207.402V75.7331H207.599H207.796V56.7998H207.599ZM207.599 75.7331V75.5359H188.666V75.7331V75.9304H207.599V75.7331Z" fill="#007E77" mask="url(#path-115-inside-57_912_10375)"/>
<mask id="path-117-inside-58_912_10375" fill="white">
<path d="M207.599 56.7998H226.532V75.7331H207.599V56.7998Z"/>
</mask>
<path d="M226.532 75.7331V75.9304H226.729V75.7331H226.532ZM226.532 56.7998H226.335V75.7331H226.532H226.729V56.7998H226.532ZM226.532 75.7331V75.5359H207.599V75.7331V75.9304H226.532V75.7331Z" fill="#007E77" mask="url(#path-117-inside-58_912_10375)"/>
<mask id="path-119-inside-59_912_10375" fill="white">
<path d="M226.532 56.7998H245.466V75.7331H226.532V56.7998Z"/>
</mask>
<path d="M245.466 75.7331V75.9304H245.663V75.7331H245.466ZM245.466 56.7998H245.268V75.7331H245.466H245.663V56.7998H245.466ZM245.466 75.7331V75.5359H226.532V75.7331V75.9304H245.466V75.7331Z" fill="#007E77" mask="url(#path-119-inside-59_912_10375)"/>
<mask id="path-121-inside-60_912_10375" fill="white">
<path d="M245.465 56.7998H264.399V75.7331H245.465V56.7998Z"/>
</mask>
<path d="M245.465 56.7998H264.399V75.7331H245.465V56.7998Z" fill="#007E77"/>
<path d="M264.399 75.7331V75.9304H264.596V75.7331H264.399ZM264.399 56.7998H264.201V75.7331H264.399H264.596V56.7998H264.399ZM264.399 75.7331V75.5359H245.465V75.7331V75.9304H264.399V75.7331Z" fill="#007E77" mask="url(#path-121-inside-60_912_10375)"/>
<mask id="path-123-inside-61_912_10375" fill="white">
<path d="M264.398 56.7998H283.332V75.7331H264.398V56.7998Z"/>
</mask>
<path d="M283.332 75.7331V75.9304H283.529V75.7331H283.332ZM283.332 56.7998H283.135V75.7331H283.332H283.529V56.7998H283.332ZM283.332 75.7331V75.5359H264.398V75.7331V75.9304H283.332V75.7331Z" fill="#007E77" mask="url(#path-123-inside-61_912_10375)"/>
<mask id="path-125-inside-62_912_10375" fill="white">
<path d="M283.332 56.7998H302.265V75.7331H283.332V56.7998Z"/>
</mask>
<path d="M302.265 75.7331V75.9304H302.463V75.7331H302.265ZM302.265 56.7998H302.068V75.7331H302.265H302.463V56.7998H302.265ZM302.265 75.7331V75.5359H283.332V75.7331V75.9304H302.265V75.7331Z" fill="#007E77" mask="url(#path-125-inside-62_912_10375)"/>
<mask id="path-127-inside-63_912_10375" fill="white">
<path d="M302.265 56.7998H321.198V75.7331H302.265V56.7998Z"/>
</mask>
<path d="M321.198 75.7331V75.9304H321.396V75.7331H321.198ZM321.198 56.7998H321.001V75.7331H321.198H321.396V56.7998H321.198ZM321.198 75.7331V75.5359H302.265V75.7331V75.9304H321.198V75.7331Z" fill="#007E77" mask="url(#path-127-inside-63_912_10375)"/>
<mask id="path-129-inside-64_912_10375" fill="white">
<path d="M321.199 56.7998H340.132V75.7331H321.199V56.7998Z"/>
</mask>
<path d="M340.132 75.7331V75.9304H340.329V75.7331H340.132ZM340.132 56.7998H339.935V75.7331H340.132H340.329V56.7998H340.132ZM340.132 75.7331V75.5359H321.199V75.7331V75.9304H340.132V75.7331Z" fill="#007E77" mask="url(#path-129-inside-64_912_10375)"/>
<mask id="path-131-inside-65_912_10375" fill="white">
<path d="M37.1987 75.7334H56.1321V94.6667H37.1987V75.7334Z"/>
</mask>
<path d="M56.1321 94.6667V94.864H56.3293V94.6667H56.1321ZM56.1321 75.7334H55.9348V94.6667H56.1321H56.3293V75.7334H56.1321ZM56.1321 94.6667V94.4695H37.1987V94.6667V94.864H56.1321V94.6667Z" fill="#007E77" mask="url(#path-131-inside-65_912_10375)"/>
<mask id="path-133-inside-66_912_10375" fill="white">
<path d="M56.1318 75.7334H75.0652V94.6667H56.1318V75.7334Z"/>
</mask>
<path d="M75.0652 94.6667V94.864H75.2624V94.6667H75.0652ZM75.0652 75.7334H74.8679V94.6667H75.0652H75.2624V75.7334H75.0652ZM75.0652 94.6667V94.4695H56.1318V94.6667V94.864H75.0652V94.6667Z" fill="#007E77" mask="url(#path-133-inside-66_912_10375)"/>
<mask id="path-135-inside-67_912_10375" fill="white">
<path d="M75.0654 75.7334H93.9988V94.6667H75.0654V75.7334Z"/>
</mask>
<path d="M93.9988 94.6667V94.864H94.196V94.6667H93.9988ZM93.9988 75.7334H93.8015V94.6667H93.9988H94.196V75.7334H93.9988ZM93.9988 94.6667V94.4695H75.0654V94.6667V94.864H93.9988V94.6667Z" fill="#007E77" mask="url(#path-135-inside-67_912_10375)"/>
<mask id="path-137-inside-68_912_10375" fill="white">
<path d="M93.9985 75.7334H112.932V94.6667H93.9985V75.7334Z"/>
</mask>
<path d="M112.932 94.6667V94.864H113.129V94.6667H112.932ZM112.932 75.7334H112.735V94.6667H112.932H113.129V75.7334H112.932ZM112.932 94.6667V94.4695H93.9985V94.6667V94.864H112.932V94.6667Z" fill="#007E77" mask="url(#path-137-inside-68_912_10375)"/>
<mask id="path-139-inside-69_912_10375" fill="white">
<path d="M112.932 75.7334H131.865V94.6667H112.932V75.7334Z"/>
</mask>
<path d="M131.865 94.6667V94.864H132.063V94.6667H131.865ZM131.865 75.7334H131.668V94.6667H131.865H132.063V75.7334H131.865ZM131.865 94.6667V94.4695H112.932V94.6667V94.864H131.865V94.6667Z" fill="#007E77" mask="url(#path-139-inside-69_912_10375)"/>
<mask id="path-141-inside-70_912_10375" fill="white">
<path d="M131.865 75.7334H150.799V94.6667H131.865V75.7334Z"/>
</mask>
<path d="M131.865 75.7334H150.799V94.6667H131.865V75.7334Z" fill="#007E77"/>
<path d="M150.799 94.6667V94.864H150.996V94.6667H150.799ZM150.799 75.7334H150.601V94.6667H150.799H150.996V75.7334H150.799ZM150.799 94.6667V94.4695H131.865V94.6667V94.864H150.799V94.6667Z" fill="#007E77" mask="url(#path-141-inside-70_912_10375)"/>
<mask id="path-143-inside-71_912_10375" fill="white">
<path d="M150.799 75.7334H169.732V94.6667H150.799V75.7334Z"/>
</mask>
<path d="M169.732 94.6667V94.864H169.929V94.6667H169.732ZM169.732 75.7334H169.535V94.6667H169.732H169.929V75.7334H169.732ZM169.732 94.6667V94.4695H150.799V94.6667V94.864H169.732V94.6667Z" fill="#007E77" mask="url(#path-143-inside-71_912_10375)"/>
<mask id="path-145-inside-72_912_10375" fill="white">
<path d="M169.732 75.7334H188.665V94.6667H169.732V75.7334Z"/>
</mask>
<path d="M188.665 94.6667V94.864H188.862V94.6667H188.665ZM188.665 75.7334H188.468V94.6667H188.665H188.862V75.7334H188.665ZM188.665 94.6667V94.4695H169.732V94.6667V94.864H188.665V94.6667Z" fill="#007E77" mask="url(#path-145-inside-72_912_10375)"/>
<mask id="path-147-inside-73_912_10375" fill="white">
<path d="M188.666 75.7334H207.599V94.6667H188.666V75.7334Z"/>
</mask>
<path d="M207.599 94.6667V94.864H207.796V94.6667H207.599ZM207.599 75.7334H207.402V94.6667H207.599H207.796V75.7334H207.599ZM207.599 94.6667V94.4695H188.666V94.6667V94.864H207.599V94.6667Z" fill="#007E77" mask="url(#path-147-inside-73_912_10375)"/>
<mask id="path-149-inside-74_912_10375" fill="white">
<path d="M207.599 75.7334H226.532V94.6667H207.599V75.7334Z"/>
</mask>
<path d="M226.532 94.6667V94.864H226.729V94.6667H226.532ZM226.532 75.7334H226.335V94.6667H226.532H226.729V75.7334H226.532ZM226.532 94.6667V94.4695H207.599V94.6667V94.864H226.532V94.6667Z" fill="#007E77" mask="url(#path-149-inside-74_912_10375)"/>
<mask id="path-151-inside-75_912_10375" fill="white">
<path d="M226.532 75.7334H245.466V94.6667H226.532V75.7334Z"/>
</mask>
<path d="M245.466 94.6667V94.864H245.663V94.6667H245.466ZM245.466 75.7334H245.268V94.6667H245.466H245.663V75.7334H245.466ZM245.466 94.6667V94.4695H226.532V94.6667V94.864H245.466V94.6667Z" fill="#007E77" mask="url(#path-151-inside-75_912_10375)"/>
<mask id="path-153-inside-76_912_10375" fill="white">
<path d="M245.465 75.7334H264.399V94.6667H245.465V75.7334Z"/>
</mask>
<path d="M264.399 94.6667V94.864H264.596V94.6667H264.399ZM264.399 75.7334H264.201V94.6667H264.399H264.596V75.7334H264.399ZM264.399 94.6667V94.4695H245.465V94.6667V94.864H264.399V94.6667Z" fill="#007E77" mask="url(#path-153-inside-76_912_10375)"/>
<mask id="path-155-inside-77_912_10375" fill="white">
<path d="M264.398 75.7334H283.332V94.6667H264.398V75.7334Z"/>
</mask>
<path d="M283.332 94.6667V94.864H283.529V94.6667H283.332ZM283.332 75.7334H283.135V94.6667H283.332H283.529V75.7334H283.332ZM283.332 94.6667V94.4695H264.398V94.6667V94.864H283.332V94.6667Z" fill="#007E77" mask="url(#path-155-inside-77_912_10375)"/>
<mask id="path-157-inside-78_912_10375" fill="white">
<path d="M283.332 75.7334H302.265V94.6667H283.332V75.7334Z"/>
</mask>
<path d="M302.265 94.6667V94.864H302.463V94.6667H302.265ZM302.265 75.7334H302.068V94.6667H302.265H302.463V75.7334H302.265ZM302.265 94.6667V94.4695H283.332V94.6667V94.864H302.265V94.6667Z" fill="#007E77" mask="url(#path-157-inside-78_912_10375)"/>
<mask id="path-159-inside-79_912_10375" fill="white">
<path d="M302.265 75.7334H321.198V94.6667H302.265V75.7334Z"/>
</mask>
<path d="M321.198 94.6667V94.864H321.396V94.6667H321.198ZM321.198 75.7334H321.001V94.6667H321.198H321.396V75.7334H321.198ZM321.198 94.6667V94.4695H302.265V94.6667V94.864H321.198V94.6667Z" fill="#007E77" mask="url(#path-159-inside-79_912_10375)"/>
<mask id="path-161-inside-80_912_10375" fill="white">
<path d="M321.199 75.7334H340.132V94.6667H321.199V75.7334Z"/>
</mask>
<path d="M321.199 75.7334H340.132V94.6667H321.199V75.7334Z" fill="#007E77"/>
<path d="M340.132 94.6667V94.864H340.329V94.6667H340.132ZM340.132 75.7334H339.935V94.6667H340.132H340.329V75.7334H340.132ZM340.132 94.6667V94.4695H321.199V94.6667V94.864H340.132V94.6667Z" fill="#007E77" mask="url(#path-161-inside-80_912_10375)"/>
<mask id="path-163-inside-81_912_10375" fill="white">
<path d="M37.1987 94.667H56.1321V113.6H37.1987V94.667Z"/>
</mask>
<path d="M56.1321 113.6V113.798H56.3293V113.6H56.1321ZM56.1321 94.667H55.9348V113.6H56.1321H56.3293V94.667H56.1321ZM56.1321 113.6V113.403H37.1987V113.6V113.798H56.1321V113.6Z" fill="#007E77" mask="url(#path-163-inside-81_912_10375)"/>
<mask id="path-165-inside-82_912_10375" fill="white">
<path d="M56.1318 94.667H75.0652V113.6H56.1318V94.667Z"/>
</mask>
<path d="M75.0652 113.6V113.798H75.2624V113.6H75.0652ZM75.0652 94.667H74.8679V113.6H75.0652H75.2624V94.667H75.0652ZM75.0652 113.6V113.403H56.1318V113.6V113.798H75.0652V113.6Z" fill="#007E77" mask="url(#path-165-inside-82_912_10375)"/>
<mask id="path-167-inside-83_912_10375" fill="white">
<path d="M75.0654 94.667H93.9988V113.6H75.0654V94.667Z"/>
</mask>
<path d="M75.0654 94.667H93.9988V113.6H75.0654V94.667Z" fill="#007E77"/>
<path d="M93.9988 113.6V113.798H94.196V113.6H93.9988ZM93.9988 94.667H93.8015V113.6H93.9988H94.196V94.667H93.9988ZM93.9988 113.6V113.403H75.0654V113.6V113.798H93.9988V113.6Z" fill="#007E77" mask="url(#path-167-inside-83_912_10375)"/>
<mask id="path-169-inside-84_912_10375" fill="white">
<path d="M93.9985 94.667H112.932V113.6H93.9985V94.667Z"/>
</mask>
<path d="M112.932 113.6V113.798H113.129V113.6H112.932ZM112.932 94.667H112.735V113.6H112.932H113.129V94.667H112.932ZM112.932 113.6V113.403H93.9985V113.6V113.798H112.932V113.6Z" fill="#007E77" mask="url(#path-169-inside-84_912_10375)"/>
<mask id="path-171-inside-85_912_10375" fill="white">
<path d="M112.932 94.667H131.865V113.6H112.932V94.667Z"/>
</mask>
<path d="M131.865 113.6V113.798H132.063V113.6H131.865ZM131.865 94.667H131.668V113.6H131.865H132.063V94.667H131.865ZM131.865 113.6V113.403H112.932V113.6V113.798H131.865V113.6Z" fill="#007E77" mask="url(#path-171-inside-85_912_10375)"/>
<mask id="path-173-inside-86_912_10375" fill="white">
<path d="M131.865 94.667H150.799V113.6H131.865V94.667Z"/>
</mask>
<path d="M150.799 113.6V113.798H150.996V113.6H150.799ZM150.799 94.667H150.601V113.6H150.799H150.996V94.667H150.799ZM150.799 113.6V113.403H131.865V113.6V113.798H150.799V113.6Z" fill="#007E77" mask="url(#path-173-inside-86_912_10375)"/>
<mask id="path-175-inside-87_912_10375" fill="white">
<path d="M150.799 94.667H169.732V113.6H150.799V94.667Z"/>
</mask>
<path d="M169.732 113.6V113.798H169.929V113.6H169.732ZM169.732 94.667H169.535V113.6H169.732H169.929V94.667H169.732ZM169.732 113.6V113.403H150.799V113.6V113.798H169.732V113.6Z" fill="#007E77" mask="url(#path-175-inside-87_912_10375)"/>
<mask id="path-177-inside-88_912_10375" fill="white">
<path d="M169.732 94.667H188.665V113.6H169.732V94.667Z"/>
</mask>
<path d="M188.665 113.6V113.798H188.862V113.6H188.665ZM188.665 94.667H188.468V113.6H188.665H188.862V94.667H188.665ZM188.665 113.6V113.403H169.732V113.6V113.798H188.665V113.6Z" fill="#007E77" mask="url(#path-177-inside-88_912_10375)"/>
<mask id="path-179-inside-89_912_10375" fill="white">
<path d="M188.666 94.667H207.599V113.6H188.666V94.667Z"/>
</mask>
<path d="M188.666 94.667H207.599V113.6H188.666V94.667Z" fill="#007E77"/>
<path d="M207.599 113.6V113.798H207.796V113.6H207.599ZM207.599 94.667H207.402V113.6H207.599H207.796V94.667H207.599ZM207.599 113.6V113.403H188.666V113.6V113.798H207.599V113.6Z" fill="#007E77" mask="url(#path-179-inside-89_912_10375)"/>
<mask id="path-181-inside-90_912_10375" fill="white">
<path d="M207.599 94.667H226.532V113.6H207.599V94.667Z"/>
</mask>
<path d="M226.532 113.6V113.798H226.729V113.6H226.532ZM226.532 94.667H226.335V113.6H226.532H226.729V94.667H226.532ZM226.532 113.6V113.403H207.599V113.6V113.798H226.532V113.6Z" fill="#007E77" mask="url(#path-181-inside-90_912_10375)"/>
<mask id="path-183-inside-91_912_10375" fill="white">
<path d="M226.532 94.667H245.466V113.6H226.532V94.667Z"/>
</mask>
<path d="M245.466 113.6V113.798H245.663V113.6H245.466ZM245.466 94.667H245.268V113.6H245.466H245.663V94.667H245.466ZM245.466 113.6V113.403H226.532V113.6V113.798H245.466V113.6Z" fill="#007E77" mask="url(#path-183-inside-91_912_10375)"/>
<mask id="path-185-inside-92_912_10375" fill="white">
<path d="M245.465 94.667H264.399V113.6H245.465V94.667Z"/>
</mask>
<path d="M264.399 113.6V113.798H264.596V113.6H264.399ZM264.399 94.667H264.201V113.6H264.399H264.596V94.667H264.399ZM264.399 113.6V113.403H245.465V113.6V113.798H264.399V113.6Z" fill="#007E77" mask="url(#path-185-inside-92_912_10375)"/>
<mask id="path-187-inside-93_912_10375" fill="white">
<path d="M264.398 94.667H283.332V113.6H264.398V94.667Z"/>
</mask>
<path d="M283.332 113.6V113.798H283.529V113.6H283.332ZM283.332 94.667H283.135V113.6H283.332H283.529V94.667H283.332ZM283.332 113.6V113.403H264.398V113.6V113.798H283.332V113.6Z" fill="#007E77" mask="url(#path-187-inside-93_912_10375)"/>
<mask id="path-189-inside-94_912_10375" fill="white">
<path d="M283.332 94.667H302.265V113.6H283.332V94.667Z"/>
</mask>
<path d="M302.265 113.6V113.798H302.463V113.6H302.265ZM302.265 94.667H302.068V113.6H302.265H302.463V94.667H302.265ZM302.265 113.6V113.403H283.332V113.6V113.798H302.265V113.6Z" fill="#007E77" mask="url(#path-189-inside-94_912_10375)"/>
<mask id="path-191-inside-95_912_10375" fill="white">
<path d="M302.265 94.667H321.198V113.6H302.265V94.667Z"/>
</mask>
<path d="M321.198 113.6V113.798H321.396V113.6H321.198ZM321.198 94.667H321.001V113.6H321.198H321.396V94.667H321.198ZM321.198 113.6V113.403H302.265V113.6V113.798H321.198V113.6Z" fill="#007E77" mask="url(#path-191-inside-95_912_10375)"/>
<mask id="path-193-inside-96_912_10375" fill="white">
<path d="M321.199 94.667H340.132V113.6H321.199V94.667Z"/>
</mask>
<path d="M340.132 113.6V113.798H340.329V113.6H340.132ZM340.132 94.667H339.935V113.6H340.132H340.329V94.667H340.132ZM340.132 113.6V113.403H321.199V113.6V113.798H340.132V113.6Z" fill="#007E77" mask="url(#path-193-inside-96_912_10375)"/>
<mask id="path-195-inside-97_912_10375" fill="white">
<path d="M37.1987 113.6H56.1321V132.533H37.1987V113.6Z"/>
</mask>
<path d="M37.1987 113.6H56.1321V132.533H37.1987V113.6Z" fill="#007E77"/>
<path d="M56.1321 132.533V132.73H56.3293V132.533H56.1321ZM56.1321 113.6H55.9348V132.533H56.1321H56.3293V113.6H56.1321ZM56.1321 132.533V132.336H37.1987V132.533V132.73H56.1321V132.533Z" fill="#007E77" mask="url(#path-195-inside-97_912_10375)"/>
<mask id="path-197-inside-98_912_10375" fill="white">
<path d="M56.1318 113.6H75.0652V132.533H56.1318V113.6Z"/>
</mask>
<path d="M75.0652 132.533V132.73H75.2624V132.533H75.0652ZM75.0652 113.6H74.8679V132.533H75.0652H75.2624V113.6H75.0652ZM75.0652 132.533V132.336H56.1318V132.533V132.73H75.0652V132.533Z" fill="#007E77" mask="url(#path-197-inside-98_912_10375)"/>
<mask id="path-199-inside-99_912_10375" fill="white">
<path d="M75.0654 113.6H93.9988V132.533H75.0654V113.6Z"/>
</mask>
<path d="M93.9988 132.533V132.73H94.196V132.533H93.9988ZM93.9988 113.6H93.8015V132.533H93.9988H94.196V113.6H93.9988ZM93.9988 132.533V132.336H75.0654V132.533V132.73H93.9988V132.533Z" fill="#007E77" mask="url(#path-199-inside-99_912_10375)"/>
<mask id="path-201-inside-100_912_10375" fill="white">
<path d="M93.9985 113.6H112.932V132.533H93.9985V113.6Z"/>
</mask>
<path d="M112.932 132.533V132.73H113.129V132.533H112.932ZM112.932 113.6H112.735V132.533H112.932H113.129V113.6H112.932ZM112.932 132.533V132.336H93.9985V132.533V132.73H112.932V132.533Z" fill="#007E77" mask="url(#path-201-inside-100_912_10375)"/>
<mask id="path-203-inside-101_912_10375" fill="white">
<path d="M112.932 113.6H131.865V132.533H112.932V113.6Z"/>
</mask>
<path d="M131.865 132.533V132.73H132.063V132.533H131.865ZM131.865 113.6H131.668V132.533H131.865H132.063V113.6H131.865ZM131.865 132.533V132.336H112.932V132.533V132.73H131.865V132.533Z" fill="#007E77" mask="url(#path-203-inside-101_912_10375)"/>
<mask id="path-205-inside-102_912_10375" fill="white">
<path d="M131.865 113.6H150.799V132.533H131.865V113.6Z"/>
</mask>
<path d="M150.799 132.533V132.73H150.996V132.533H150.799ZM150.799 113.6H150.601V132.533H150.799H150.996V113.6H150.799ZM150.799 132.533V132.336H131.865V132.533V132.73H150.799V132.533Z" fill="#007E77" mask="url(#path-205-inside-102_912_10375)"/>
<mask id="path-207-inside-103_912_10375" fill="white">
<path d="M150.799 113.6H169.732V132.533H150.799V113.6Z"/>
</mask>
<path d="M169.732 132.533V132.73H169.929V132.533H169.732ZM169.732 113.6H169.535V132.533H169.732H169.929V113.6H169.732ZM169.732 132.533V132.336H150.799V132.533V132.73H169.732V132.533Z" fill="#007E77" mask="url(#path-207-inside-103_912_10375)"/>
<mask id="path-209-inside-104_912_10375" fill="white">
<path d="M169.732 113.6H188.665V132.533H169.732V113.6Z"/>
</mask>
<path d="M188.665 132.533V132.73H188.862V132.533H188.665ZM188.665 113.6H188.468V132.533H188.665H188.862V113.6H188.665ZM188.665 132.533V132.336H169.732V132.533V132.73H188.665V132.533Z" fill="#007E77" mask="url(#path-209-inside-104_912_10375)"/>
<mask id="path-211-inside-105_912_10375" fill="white">
<path d="M188.666 113.6H207.599V132.533H188.666V113.6Z"/>
</mask>
<path d="M207.599 132.533V132.73H207.796V132.533H207.599ZM207.599 113.6H207.402V132.533H207.599H207.796V113.6H207.599ZM207.599 132.533V132.336H188.666V132.533V132.73H207.599V132.533Z" fill="#007E77" mask="url(#path-211-inside-105_912_10375)"/>
<mask id="path-213-inside-106_912_10375" fill="white">
<path d="M207.599 113.6H226.532V132.533H207.599V113.6Z"/>
</mask>
<path d="M226.532 132.533V132.73H226.729V132.533H226.532ZM226.532 113.6H226.335V132.533H226.532H226.729V113.6H226.532ZM226.532 132.533V132.336H207.599V132.533V132.73H226.532V132.533Z" fill="#007E77" mask="url(#path-213-inside-106_912_10375)"/>
<mask id="path-215-inside-107_912_10375" fill="white">
<path d="M226.532 113.6H245.466V132.533H226.532V113.6Z"/>
</mask>
<path d="M245.466 132.533V132.73H245.663V132.533H245.466ZM245.466 113.6H245.268V132.533H245.466H245.663V113.6H245.466ZM245.466 132.533V132.336H226.532V132.533V132.73H245.466V132.533Z" fill="#007E77" mask="url(#path-215-inside-107_912_10375)"/>
<mask id="path-217-inside-108_912_10375" fill="white">
<path d="M245.465 113.6H264.399V132.533H245.465V113.6Z"/>
</mask>
<path d="M264.399 132.533V132.73H264.596V132.533H264.399ZM264.399 113.6H264.201V132.533H264.399H264.596V113.6H264.399ZM264.399 132.533V132.336H245.465V132.533V132.73H264.399V132.533Z" fill="#007E77" mask="url(#path-217-inside-108_912_10375)"/>
<mask id="path-219-inside-109_912_10375" fill="white">
<path d="M264.398 113.6H283.332V132.533H264.398V113.6Z"/>
</mask>
<path d="M283.332 132.533V132.73H283.529V132.533H283.332ZM283.332 113.6H283.135V132.533H283.332H283.529V113.6H283.332ZM283.332 132.533V132.336H264.398V132.533V132.73H283.332V132.533Z" fill="#007E77" mask="url(#path-219-inside-109_912_10375)"/>
<mask id="path-221-inside-110_912_10375" fill="white">
<path d="M283.332 113.6H302.265V132.533H283.332V113.6Z"/>
</mask>
<path d="M283.332 113.6H302.265V132.533H283.332V113.6Z" fill="#007E77"/>
<path d="M302.265 132.533V132.73H302.463V132.533H302.265ZM302.265 113.6H302.068V132.533H302.265H302.463V113.6H302.265ZM302.265 132.533V132.336H283.332V132.533V132.73H302.265V132.533Z" fill="#007E77" mask="url(#path-221-inside-110_912_10375)"/>
<mask id="path-223-inside-111_912_10375" fill="white">
<path d="M302.265 113.6H321.198V132.533H302.265V113.6Z"/>
</mask>
<path d="M321.198 132.533V132.73H321.396V132.533H321.198ZM321.198 113.6H321.001V132.533H321.198H321.396V113.6H321.198ZM321.198 132.533V132.336H302.265V132.533V132.73H321.198V132.533Z" fill="#007E77" mask="url(#path-223-inside-111_912_10375)"/>
<mask id="path-225-inside-112_912_10375" fill="white">
<path d="M321.199 113.6H340.132V132.533H321.199V113.6Z"/>
</mask>
<path d="M340.132 132.533V132.73H340.329V132.533H340.132ZM340.132 113.6H339.935V132.533H340.132H340.329V113.6H340.132ZM340.132 132.533V132.336H321.199V132.533V132.73H340.132V132.533Z" fill="#007E77" mask="url(#path-225-inside-112_912_10375)"/>
<mask id="path-227-inside-113_912_10375" fill="white">
<path d="M37.1987 132.533H56.1321V151.467H37.1987V132.533Z"/>
</mask>
<path d="M56.1321 151.467V151.664H56.3293V151.467H56.1321ZM56.1321 132.533H55.9348V151.467H56.1321H56.3293V132.533H56.1321ZM56.1321 151.467V151.269H37.1987V151.467V151.664H56.1321V151.467Z" fill="#007E77" mask="url(#path-227-inside-113_912_10375)"/>
<mask id="path-229-inside-114_912_10375" fill="white">
<path d="M56.1318 132.533H75.0652V151.467H56.1318V132.533Z"/>
</mask>
<path d="M75.0652 151.467V151.664H75.2624V151.467H75.0652ZM75.0652 132.533H74.8679V151.467H75.0652H75.2624V132.533H75.0652ZM75.0652 151.467V151.269H56.1318V151.467V151.664H75.0652V151.467Z" fill="#007E77" mask="url(#path-229-inside-114_912_10375)"/>
<mask id="path-231-inside-115_912_10375" fill="white">
<path d="M75.0654 132.533H93.9988V151.467H75.0654V132.533Z"/>
</mask>
<path d="M93.9988 151.467V151.664H94.196V151.467H93.9988ZM93.9988 132.533H93.8015V151.467H93.9988H94.196V132.533H93.9988ZM93.9988 151.467V151.269H75.0654V151.467V151.664H93.9988V151.467Z" fill="#007E77" mask="url(#path-231-inside-115_912_10375)"/>
<mask id="path-233-inside-116_912_10375" fill="white">
<path d="M93.9985 132.533H112.932V151.467H93.9985V132.533Z"/>
</mask>
<path d="M112.932 151.467V151.664H113.129V151.467H112.932ZM112.932 132.533H112.735V151.467H112.932H113.129V132.533H112.932ZM112.932 151.467V151.269H93.9985V151.467V151.664H112.932V151.467Z" fill="#007E77" mask="url(#path-233-inside-116_912_10375)"/>
<mask id="path-235-inside-117_912_10375" fill="white">
<path d="M112.932 132.533H131.865V151.467H112.932V132.533Z"/>
</mask>
<path d="M131.865 151.467V151.664H132.063V151.467H131.865ZM131.865 132.533H131.668V151.467H131.865H132.063V132.533H131.865ZM131.865 151.467V151.269H112.932V151.467V151.664H131.865V151.467Z" fill="#007E77" mask="url(#path-235-inside-117_912_10375)"/>
<mask id="path-237-inside-118_912_10375" fill="white">
<path d="M131.865 132.533H150.799V151.467H131.865V132.533Z"/>
</mask>
<path d="M131.865 132.533H150.799V151.467H131.865V132.533Z" fill="#007E77"/>
<path d="M150.799 151.467V151.664H150.996V151.467H150.799ZM150.799 132.533H150.601V151.467H150.799H150.996V132.533H150.799ZM150.799 151.467V151.269H131.865V151.467V151.664H150.799V151.467Z" fill="#007E77" mask="url(#path-237-inside-118_912_10375)"/>
<mask id="path-239-inside-119_912_10375" fill="white">
<path d="M150.799 132.533H169.732V151.467H150.799V132.533Z"/>
</mask>
<path d="M169.732 151.467V151.664H169.929V151.467H169.732ZM169.732 132.533H169.535V151.467H169.732H169.929V132.533H169.732ZM169.732 151.467V151.269H150.799V151.467V151.664H169.732V151.467Z" fill="#007E77" mask="url(#path-239-inside-119_912_10375)"/>
<mask id="path-241-inside-120_912_10375" fill="white">
<path d="M169.732 132.533H188.665V151.467H169.732V132.533Z"/>
</mask>
<path d="M188.665 151.467V151.664H188.862V151.467H188.665ZM188.665 132.533H188.468V151.467H188.665H188.862V132.533H188.665ZM188.665 151.467V151.269H169.732V151.467V151.664H188.665V151.467Z" fill="#007E77" mask="url(#path-241-inside-120_912_10375)"/>
<mask id="path-243-inside-121_912_10375" fill="white">
<path d="M188.666 132.533H207.599V151.467H188.666V132.533Z"/>
</mask>
<path d="M207.599 151.467V151.664H207.796V151.467H207.599ZM207.599 132.533H207.402V151.467H207.599H207.796V132.533H207.599ZM207.599 151.467V151.269H188.666V151.467V151.664H207.599V151.467Z" fill="#007E77" mask="url(#path-243-inside-121_912_10375)"/>
<mask id="path-245-inside-122_912_10375" fill="white">
<path d="M207.599 132.533H226.532V151.467H207.599V132.533Z"/>
</mask>
<path d="M226.532 151.467V151.664H226.729V151.467H226.532ZM226.532 132.533H226.335V151.467H226.532H226.729V132.533H226.532ZM226.532 151.467V151.269H207.599V151.467V151.664H226.532V151.467Z" fill="#007E77" mask="url(#path-245-inside-122_912_10375)"/>
<mask id="path-247-inside-123_912_10375" fill="white">
<path d="M226.532 132.533H245.466V151.467H226.532V132.533Z"/>
</mask>
<path d="M245.466 151.467V151.664H245.663V151.467H245.466ZM245.466 132.533H245.268V151.467H245.466H245.663V132.533H245.466ZM245.466 151.467V151.269H226.532V151.467V151.664H245.466V151.467Z" fill="#007E77" mask="url(#path-247-inside-123_912_10375)"/>
<mask id="path-249-inside-124_912_10375" fill="white">
<path d="M245.465 132.533H264.399V151.467H245.465V132.533Z"/>
</mask>
<path d="M245.465 132.533H264.399V151.467H245.465V132.533Z" fill="#007E77"/>
<path d="M264.399 151.467V151.664H264.596V151.467H264.399ZM264.399 132.533H264.201V151.467H264.399H264.596V132.533H264.399ZM264.399 151.467V151.269H245.465V151.467V151.664H264.399V151.467Z" fill="#007E77" mask="url(#path-249-inside-124_912_10375)"/>
<mask id="path-251-inside-125_912_10375" fill="white">
<path d="M264.398 132.533H283.332V151.467H264.398V132.533Z"/>
</mask>
<path d="M283.332 151.467V151.664H283.529V151.467H283.332ZM283.332 132.533H283.135V151.467H283.332H283.529V132.533H283.332ZM283.332 151.467V151.269H264.398V151.467V151.664H283.332V151.467Z" fill="#007E77" mask="url(#path-251-inside-125_912_10375)"/>
<mask id="path-253-inside-126_912_10375" fill="white">
<path d="M283.332 132.533H302.265V151.467H283.332V132.533Z"/>
</mask>
<path d="M302.265 151.467V151.664H302.463V151.467H302.265ZM302.265 132.533H302.068V151.467H302.265H302.463V132.533H302.265ZM302.265 151.467V151.269H283.332V151.467V151.664H302.265V151.467Z" fill="#007E77" mask="url(#path-253-inside-126_912_10375)"/>
<mask id="path-255-inside-127_912_10375" fill="white">
<path d="M302.265 132.533H321.198V151.467H302.265V132.533Z"/>
</mask>
<path d="M321.198 151.467V151.664H321.396V151.467H321.198ZM321.198 132.533H321.001V151.467H321.198H321.396V132.533H321.198ZM321.198 151.467V151.269H302.265V151.467V151.664H321.198V151.467Z" fill="#007E77" mask="url(#path-255-inside-127_912_10375)"/>
<mask id="path-257-inside-128_912_10375" fill="white">
<path d="M321.199 132.533H340.132V151.467H321.199V132.533Z"/>
</mask>
<path d="M340.132 151.467V151.664H340.329V151.467H340.132ZM340.132 132.533H339.935V151.467H340.132H340.329V132.533H340.132ZM340.132 151.467V151.269H321.199V151.467V151.664H340.132V151.467Z" fill="#007E77" mask="url(#path-257-inside-128_912_10375)"/>
<mask id="path-259-inside-129_912_10375" fill="white">
<path d="M37.1987 151.467H56.1321V170.4H37.1987V151.467Z"/>
</mask>
<path d="M56.1321 170.4V170.597H56.3293V170.4H56.1321ZM56.1321 151.467H55.9348V170.4H56.1321H56.3293V151.467H56.1321ZM56.1321 170.4V170.203H37.1987V170.4V170.597H56.1321V170.4Z" fill="#007E77" mask="url(#path-259-inside-129_912_10375)"/>
<mask id="path-261-inside-130_912_10375" fill="white">
<path d="M56.1318 151.467H75.0652V170.4H56.1318V151.467Z"/>
</mask>
<path d="M75.0652 170.4V170.597H75.2624V170.4H75.0652ZM75.0652 151.467H74.8679V170.4H75.0652H75.2624V151.467H75.0652ZM75.0652 170.4V170.203H56.1318V170.4V170.597H75.0652V170.4Z" fill="#007E77" mask="url(#path-261-inside-130_912_10375)"/>
<mask id="path-263-inside-131_912_10375" fill="white">
<path d="M75.0654 151.467H93.9988V170.4H75.0654V151.467Z"/>
</mask>
<path d="M75.0654 151.467H93.9988V170.4H75.0654V151.467Z" fill="#007E77"/>
<path d="M93.9988 170.4V170.597H94.196V170.4H93.9988ZM93.9988 151.467H93.8015V170.4H93.9988H94.196V151.467H93.9988ZM93.9988 170.4V170.203H75.0654V170.4V170.597H93.9988V170.4Z" fill="#007E77" mask="url(#path-263-inside-131_912_10375)"/>
<mask id="path-265-inside-132_912_10375" fill="white">
<path d="M93.9985 151.467H112.932V170.4H93.9985V151.467Z"/>
</mask>
<path d="M112.932 170.4V170.597H113.129V170.4H112.932ZM112.932 151.467H112.735V170.4H112.932H113.129V151.467H112.932ZM112.932 170.4V170.203H93.9985V170.4V170.597H112.932V170.4Z" fill="#007E77" mask="url(#path-265-inside-132_912_10375)"/>
<mask id="path-267-inside-133_912_10375" fill="white">
<path d="M112.932 151.467H131.865V170.4H112.932V151.467Z"/>
</mask>
<path d="M131.865 170.4V170.597H132.063V170.4H131.865ZM131.865 151.467H131.668V170.4H131.865H132.063V151.467H131.865ZM131.865 170.4V170.203H112.932V170.4V170.597H131.865V170.4Z" fill="#007E77" mask="url(#path-267-inside-133_912_10375)"/>
<mask id="path-269-inside-134_912_10375" fill="white">
<path d="M131.865 151.467H150.799V170.4H131.865V151.467Z"/>
</mask>
<path d="M150.799 170.4V170.597H150.996V170.4H150.799ZM150.799 151.467H150.601V170.4H150.799H150.996V151.467H150.799ZM150.799 170.4V170.203H131.865V170.4V170.597H150.799V170.4Z" fill="#007E77" mask="url(#path-269-inside-134_912_10375)"/>
<mask id="path-271-inside-135_912_10375" fill="white">
<path d="M150.799 151.467H169.732V170.4H150.799V151.467Z"/>
</mask>
<path d="M169.732 170.4V170.597H169.929V170.4H169.732ZM169.732 151.467H169.535V170.4H169.732H169.929V151.467H169.732ZM169.732 170.4V170.203H150.799V170.4V170.597H169.732V170.4Z" fill="#007E77" mask="url(#path-271-inside-135_912_10375)"/>
<mask id="path-273-inside-136_912_10375" fill="white">
<path d="M169.732 151.467H188.665V170.4H169.732V151.467Z"/>
</mask>
<path d="M188.665 170.4V170.597H188.862V170.4H188.665ZM188.665 151.467H188.468V170.4H188.665H188.862V151.467H188.665ZM188.665 170.4V170.203H169.732V170.4V170.597H188.665V170.4Z" fill="#007E77" mask="url(#path-273-inside-136_912_10375)"/>
<mask id="path-275-inside-137_912_10375" fill="white">
<path d="M188.666 151.467H207.599V170.4H188.666V151.467Z"/>
</mask>
<path d="M188.666 151.467H207.599V170.4H188.666V151.467Z" fill="#007E77"/>
<path d="M207.599 170.4V170.597H207.796V170.4H207.599ZM207.599 151.467H207.402V170.4H207.599H207.796V151.467H207.599ZM207.599 170.4V170.203H188.666V170.4V170.597H207.599V170.4Z" fill="#007E77" mask="url(#path-275-inside-137_912_10375)"/>
<mask id="path-277-inside-138_912_10375" fill="white">
<path d="M207.599 151.467H226.532V170.4H207.599V151.467Z"/>
</mask>
<path d="M226.532 170.4V170.597H226.729V170.4H226.532ZM226.532 151.467H226.335V170.4H226.532H226.729V151.467H226.532ZM226.532 170.4V170.203H207.599V170.4V170.597H226.532V170.4Z" fill="#007E77" mask="url(#path-277-inside-138_912_10375)"/>
<mask id="path-279-inside-139_912_10375" fill="white">
<path d="M226.532 151.467H245.466V170.4H226.532V151.467Z"/>
</mask>
<path d="M245.466 170.4V170.597H245.663V170.4H245.466ZM245.466 151.467H245.268V170.4H245.466H245.663V151.467H245.466ZM245.466 170.4V170.203H226.532V170.4V170.597H245.466V170.4Z" fill="#007E77" mask="url(#path-279-inside-139_912_10375)"/>
<mask id="path-281-inside-140_912_10375" fill="white">
<path d="M245.465 151.467H264.399V170.4H245.465V151.467Z"/>
</mask>
<path d="M264.399 170.4V170.597H264.596V170.4H264.399ZM264.399 151.467H264.201V170.4H264.399H264.596V151.467H264.399ZM264.399 170.4V170.203H245.465V170.4V170.597H264.399V170.4Z" fill="#007E77" mask="url(#path-281-inside-140_912_10375)"/>
<mask id="path-283-inside-141_912_10375" fill="white">
<path d="M264.398 151.467H283.332V170.4H264.398V151.467Z"/>
</mask>
<path d="M283.332 170.4V170.597H283.529V170.4H283.332ZM283.332 151.467H283.135V170.4H283.332H283.529V151.467H283.332ZM283.332 170.4V170.203H264.398V170.4V170.597H283.332V170.4Z" fill="#007E77" mask="url(#path-283-inside-141_912_10375)"/>
<mask id="path-285-inside-142_912_10375" fill="white">
<path d="M283.332 151.467H302.265V170.4H283.332V151.467Z"/>
</mask>
<path d="M302.265 170.4V170.597H302.463V170.4H302.265ZM302.265 151.467H302.068V170.4H302.265H302.463V151.467H302.265ZM302.265 170.4V170.203H283.332V170.4V170.597H302.265V170.4Z" fill="#007E77" mask="url(#path-285-inside-142_912_10375)"/>
<mask id="path-287-inside-143_912_10375" fill="white">
<path d="M302.265 151.467H321.198V170.4H302.265V151.467Z"/>
</mask>
<path d="M321.198 170.4V170.597H321.396V170.4H321.198ZM321.198 151.467H321.001V170.4H321.198H321.396V151.467H321.198ZM321.198 170.4V170.203H302.265V170.4V170.597H321.198V170.4Z" fill="#007E77" mask="url(#path-287-inside-143_912_10375)"/>
<mask id="path-289-inside-144_912_10375" fill="white">
<path d="M321.199 151.467H340.132V170.4H321.199V151.467Z"/>
</mask>
<path d="M340.132 170.4V170.597H340.329V170.4H340.132ZM340.132 151.467H339.935V170.4H340.132H340.329V151.467H340.132ZM340.132 170.4V170.203H321.199V170.4V170.597H340.132V170.4Z" fill="#007E77" mask="url(#path-289-inside-144_912_10375)"/>
<mask id="path-291-inside-145_912_10375" fill="white">
<path d="M37.1987 170.4H56.1321V189.334H37.1987V170.4Z"/>
</mask>
<path d="M56.1321 189.334V189.531H56.3293V189.334H56.1321ZM56.1321 170.4H55.9348V189.334H56.1321H56.3293V170.4H56.1321ZM56.1321 189.334V189.137H37.1987V189.334V189.531H56.1321V189.334Z" fill="#007E77" mask="url(#path-291-inside-145_912_10375)"/>
<mask id="path-293-inside-146_912_10375" fill="white">
<path d="M56.1318 170.4H75.0652V189.334H56.1318V170.4Z"/>
</mask>
<path d="M75.0652 189.334V189.531H75.2624V189.334H75.0652ZM75.0652 170.4H74.8679V189.334H75.0652H75.2624V170.4H75.0652ZM75.0652 189.334V189.137H56.1318V189.334V189.531H75.0652V189.334Z" fill="#007E77" mask="url(#path-293-inside-146_912_10375)"/>
<mask id="path-295-inside-147_912_10375" fill="white">
<path d="M75.0654 170.4H93.9988V189.334H75.0654V170.4Z"/>
</mask>
<path d="M93.9988 189.334V189.531H94.196V189.334H93.9988ZM93.9988 170.4H93.8015V189.334H93.9988H94.196V170.4H93.9988ZM93.9988 189.334V189.137H75.0654V189.334V189.531H93.9988V189.334Z" fill="#007E77" mask="url(#path-295-inside-147_912_10375)"/>
<mask id="path-297-inside-148_912_10375" fill="white">
<path d="M93.9985 170.4H112.932V189.334H93.9985V170.4Z"/>
</mask>
<path d="M112.932 189.334V189.531H113.129V189.334H112.932ZM112.932 170.4H112.735V189.334H112.932H113.129V170.4H112.932ZM112.932 189.334V189.137H93.9985V189.334V189.531H112.932V189.334Z" fill="#007E77" mask="url(#path-297-inside-148_912_10375)"/>
<mask id="path-299-inside-149_912_10375" fill="white">
<path d="M112.932 170.4H131.865V189.334H112.932V170.4Z"/>
</mask>
<path d="M131.865 189.334V189.531H132.063V189.334H131.865ZM131.865 170.4H131.668V189.334H131.865H132.063V170.4H131.865ZM131.865 189.334V189.137H112.932V189.334V189.531H131.865V189.334Z" fill="#007E77" mask="url(#path-299-inside-149_912_10375)"/>
<mask id="path-301-inside-150_912_10375" fill="white">
<path d="M131.865 170.4H150.799V189.334H131.865V170.4Z"/>
</mask>
<path d="M150.799 189.334V189.531H150.996V189.334H150.799ZM150.799 170.4H150.601V189.334H150.799H150.996V170.4H150.799ZM150.799 189.334V189.137H131.865V189.334V189.531H150.799V189.334Z" fill="#007E77" mask="url(#path-301-inside-150_912_10375)"/>
<mask id="path-303-inside-151_912_10375" fill="white">
<path d="M150.799 170.4H169.732V189.334H150.799V170.4Z"/>
</mask>
<path d="M169.732 189.334V189.531H169.929V189.334H169.732ZM169.732 170.4H169.535V189.334H169.732H169.929V170.4H169.732ZM169.732 189.334V189.137H150.799V189.334V189.531H169.732V189.334Z" fill="#007E77" mask="url(#path-303-inside-151_912_10375)"/>
<mask id="path-305-inside-152_912_10375" fill="white">
<path d="M169.732 170.4H188.665V189.334H169.732V170.4Z"/>
</mask>
<path d="M188.665 189.334V189.531H188.862V189.334H188.665ZM188.665 170.4H188.468V189.334H188.665H188.862V170.4H188.665ZM188.665 189.334V189.137H169.732V189.334V189.531H188.665V189.334Z" fill="#007E77" mask="url(#path-305-inside-152_912_10375)"/>
<mask id="path-307-inside-153_912_10375" fill="white">
<path d="M188.666 170.4H207.599V189.334H188.666V170.4Z"/>
</mask>
<path d="M207.599 189.334V189.531H207.796V189.334H207.599ZM207.599 170.4H207.402V189.334H207.599H207.796V170.4H207.599ZM207.599 189.334V189.137H188.666V189.334V189.531H207.599V189.334Z" fill="#007E77" mask="url(#path-307-inside-153_912_10375)"/>
<mask id="path-309-inside-154_912_10375" fill="white">
<path d="M207.599 170.4H226.532V189.334H207.599V170.4Z"/>
</mask>
<path d="M226.532 189.334V189.531H226.729V189.334H226.532ZM226.532 170.4H226.335V189.334H226.532H226.729V170.4H226.532ZM226.532 189.334V189.137H207.599V189.334V189.531H226.532V189.334Z" fill="#007E77" mask="url(#path-309-inside-154_912_10375)"/>
<mask id="path-311-inside-155_912_10375" fill="white">
<path d="M226.532 170.4H245.466V189.334H226.532V170.4Z"/>
</mask>
<path d="M245.466 189.334V189.531H245.663V189.334H245.466ZM245.466 170.4H245.268V189.334H245.466H245.663V170.4H245.466ZM245.466 189.334V189.137H226.532V189.334V189.531H245.466V189.334Z" fill="#007E77" mask="url(#path-311-inside-155_912_10375)"/>
<mask id="path-313-inside-156_912_10375" fill="white">
<path d="M245.465 170.4H264.399V189.334H245.465V170.4Z"/>
</mask>
<path d="M264.399 189.334V189.531H264.596V189.334H264.399ZM264.399 170.4H264.201V189.334H264.399H264.596V170.4H264.399ZM264.399 189.334V189.137H245.465V189.334V189.531H264.399V189.334Z" fill="#007E77" mask="url(#path-313-inside-156_912_10375)"/>
<mask id="path-315-inside-157_912_10375" fill="white">
<path d="M264.398 170.4H283.332V189.334H264.398V170.4Z"/>
</mask>
<path d="M283.332 189.334V189.531H283.529V189.334H283.332ZM283.332 170.4H283.135V189.334H283.332H283.529V170.4H283.332ZM283.332 189.334V189.137H264.398V189.334V189.531H283.332V189.334Z" fill="#007E77" mask="url(#path-315-inside-157_912_10375)"/>
<mask id="path-317-inside-158_912_10375" fill="white">
<path d="M283.332 170.4H302.265V189.334H283.332V170.4Z"/>
</mask>
<path d="M302.265 189.334V189.531H302.463V189.334H302.265ZM302.265 170.4H302.068V189.334H302.265H302.463V170.4H302.265ZM302.265 189.334V189.137H283.332V189.334V189.531H302.265V189.334Z" fill="#007E77" mask="url(#path-317-inside-158_912_10375)"/>
<mask id="path-319-inside-159_912_10375" fill="white">
<path d="M302.265 170.4H321.198V189.334H302.265V170.4Z"/>
</mask>
<path d="M302.265 170.4H321.198V189.334H302.265V170.4Z" fill="#007E77"/>
<path d="M321.198 189.334V189.531H321.396V189.334H321.198ZM321.198 170.4H321.001V189.334H321.198H321.396V170.4H321.198ZM321.198 189.334V189.137H302.265V189.334V189.531H321.198V189.334Z" fill="#007E77" mask="url(#path-319-inside-159_912_10375)"/>
<mask id="path-321-inside-160_912_10375" fill="white">
<path d="M321.199 170.4H340.132V189.334H321.199V170.4Z"/>
</mask>
<path d="M340.132 189.334V189.531H340.329V189.334H340.132ZM340.132 170.4H339.935V189.334H340.132H340.329V170.4H340.132ZM340.132 189.334V189.137H321.199V189.334V189.531H340.132V189.334Z" fill="#007E77" mask="url(#path-321-inside-160_912_10375)"/>
<mask id="path-323-inside-161_912_10375" fill="white">
<path d="M37.1987 189.333H56.1321V208.266H37.1987V189.333Z"/>
</mask>
<path d="M56.1321 208.266V208.464H56.3293V208.266H56.1321ZM56.1321 189.333H55.9348V208.266H56.1321H56.3293V189.333H56.1321ZM56.1321 208.266V208.069H37.1987V208.266V208.464H56.1321V208.266Z" fill="#007E77" mask="url(#path-323-inside-161_912_10375)"/>
<mask id="path-325-inside-162_912_10375" fill="white">
<path d="M56.1318 189.333H75.0652V208.266H56.1318V189.333Z"/>
</mask>
<path d="M75.0652 208.266V208.464H75.2624V208.266H75.0652ZM75.0652 189.333H74.8679V208.266H75.0652H75.2624V189.333H75.0652ZM75.0652 208.266V208.069H56.1318V208.266V208.464H75.0652V208.266Z" fill="#007E77" mask="url(#path-325-inside-162_912_10375)"/>
<mask id="path-327-inside-163_912_10375" fill="white">
<path d="M75.0654 189.333H93.9988V208.266H75.0654V189.333Z"/>
</mask>
<path d="M93.9988 208.266V208.464H94.196V208.266H93.9988ZM93.9988 189.333H93.8015V208.266H93.9988H94.196V189.333H93.9988ZM93.9988 208.266V208.069H75.0654V208.266V208.464H93.9988V208.266Z" fill="#007E77" mask="url(#path-327-inside-163_912_10375)"/>
<mask id="path-329-inside-164_912_10375" fill="white">
<path d="M93.9985 189.333H112.932V208.266H93.9985V189.333Z"/>
</mask>
<path d="M93.9985 189.333H112.932V208.266H93.9985V189.333Z" fill="#007E77"/>
<path d="M112.932 208.266V208.464H113.129V208.266H112.932ZM112.932 189.333H112.735V208.266H112.932H113.129V189.333H112.932ZM112.932 208.266V208.069H93.9985V208.266V208.464H112.932V208.266Z" fill="#007E77" mask="url(#path-329-inside-164_912_10375)"/>
<mask id="path-331-inside-165_912_10375" fill="white">
<path d="M112.932 189.333H131.865V208.266H112.932V189.333Z"/>
</mask>
<path d="M131.865 208.266V208.464H132.063V208.266H131.865ZM131.865 189.333H131.668V208.266H131.865H132.063V189.333H131.865ZM131.865 208.266V208.069H112.932V208.266V208.464H131.865V208.266Z" fill="#007E77" mask="url(#path-331-inside-165_912_10375)"/>
<mask id="path-333-inside-166_912_10375" fill="white">
<path d="M131.865 189.333H150.799V208.266H131.865V189.333Z"/>
</mask>
<path d="M150.799 208.266V208.464H150.996V208.266H150.799ZM150.799 189.333H150.601V208.266H150.799H150.996V189.333H150.799ZM150.799 208.266V208.069H131.865V208.266V208.464H150.799V208.266Z" fill="#007E77" mask="url(#path-333-inside-166_912_10375)"/>
<mask id="path-335-inside-167_912_10375" fill="white">
<path d="M150.799 189.333H169.732V208.266H150.799V189.333Z"/>
</mask>
<path d="M169.732 208.266V208.464H169.929V208.266H169.732ZM169.732 189.333H169.535V208.266H169.732H169.929V189.333H169.732ZM169.732 208.266V208.069H150.799V208.266V208.464H169.732V208.266Z" fill="#007E77" mask="url(#path-335-inside-167_912_10375)"/>
<mask id="path-337-inside-168_912_10375" fill="white">
<path d="M169.732 189.333H188.665V208.266H169.732V189.333Z"/>
</mask>
<path d="M169.732 189.333H188.665V208.266H169.732V189.333Z" fill="#007E77"/>
<path d="M188.665 208.266V208.464H188.862V208.266H188.665ZM188.665 189.333H188.468V208.266H188.665H188.862V189.333H188.665ZM188.665 208.266V208.069H169.732V208.266V208.464H188.665V208.266Z" fill="#007E77" mask="url(#path-337-inside-168_912_10375)"/>
<mask id="path-339-inside-169_912_10375" fill="white">
<path d="M188.666 189.333H207.599V208.266H188.666V189.333Z"/>
</mask>
<path d="M207.599 208.266V208.464H207.796V208.266H207.599ZM207.599 189.333H207.402V208.266H207.599H207.796V189.333H207.599ZM207.599 208.266V208.069H188.666V208.266V208.464H207.599V208.266Z" fill="#007E77" mask="url(#path-339-inside-169_912_10375)"/>
<mask id="path-341-inside-170_912_10375" fill="white">
<path d="M207.599 189.333H226.532V208.266H207.599V189.333Z"/>
</mask>
<path d="M226.532 208.266V208.464H226.729V208.266H226.532ZM226.532 189.333H226.335V208.266H226.532H226.729V189.333H226.532ZM226.532 208.266V208.069H207.599V208.266V208.464H226.532V208.266Z" fill="#007E77" mask="url(#path-341-inside-170_912_10375)"/>
<mask id="path-343-inside-171_912_10375" fill="white">
<path d="M226.532 189.333H245.466V208.266H226.532V189.333Z"/>
</mask>
<path d="M245.466 208.266V208.464H245.663V208.266H245.466ZM245.466 189.333H245.268V208.266H245.466H245.663V189.333H245.466ZM245.466 208.266V208.069H226.532V208.266V208.464H245.466V208.266Z" fill="#007E77" mask="url(#path-343-inside-171_912_10375)"/>
<mask id="path-345-inside-172_912_10375" fill="white">
<path d="M245.465 189.333H264.399V208.266H245.465V189.333Z"/>
</mask>
<path d="M264.399 208.266V208.464H264.596V208.266H264.399ZM264.399 189.333H264.201V208.266H264.399H264.596V189.333H264.399ZM264.399 208.266V208.069H245.465V208.266V208.464H264.399V208.266Z" fill="#007E77" mask="url(#path-345-inside-172_912_10375)"/>
<mask id="path-347-inside-173_912_10375" fill="white">
<path d="M264.398 189.333H283.332V208.266H264.398V189.333Z"/>
</mask>
<path d="M283.332 208.266V208.464H283.529V208.266H283.332ZM283.332 189.333H283.135V208.266H283.332H283.529V189.333H283.332ZM283.332 208.266V208.069H264.398V208.266V208.464H283.332V208.266Z" fill="#007E77" mask="url(#path-347-inside-173_912_10375)"/>
<mask id="path-349-inside-174_912_10375" fill="white">
<path d="M283.332 189.333H302.265V208.266H283.332V189.333Z"/>
</mask>
<path d="M302.265 208.266V208.464H302.463V208.266H302.265ZM302.265 189.333H302.068V208.266H302.265H302.463V189.333H302.265ZM302.265 208.266V208.069H283.332V208.266V208.464H302.265V208.266Z" fill="#007E77" mask="url(#path-349-inside-174_912_10375)"/>
<mask id="path-351-inside-175_912_10375" fill="white">
<path d="M302.265 189.333H321.198V208.266H302.265V189.333Z"/>
</mask>
<path d="M321.198 208.266V208.464H321.396V208.266H321.198ZM321.198 189.333H321.001V208.266H321.198H321.396V189.333H321.198ZM321.198 208.266V208.069H302.265V208.266V208.464H321.198V208.266Z" fill="#007E77" mask="url(#path-351-inside-175_912_10375)"/>
<mask id="path-353-inside-176_912_10375" fill="white">
<path d="M321.199 189.333H340.132V208.266H321.199V189.333Z"/>
</mask>
<path d="M340.132 208.266V208.464H340.329V208.266H340.132ZM340.132 189.333H339.935V208.266H340.132H340.329V189.333H340.132ZM340.132 208.266V208.069H321.199V208.266V208.464H340.132V208.266Z" fill="#007E77" mask="url(#path-353-inside-176_912_10375)"/>
<mask id="path-355-inside-177_912_10375" fill="white">
<path d="M37.1987 208.267H56.1321V227.2H37.1987V208.267Z"/>
</mask>
<path d="M56.1321 227.2V227.397H56.3293V227.2H56.1321ZM56.1321 208.267H55.9348V227.2H56.1321H56.3293V208.267H56.1321ZM56.1321 227.2V227.003H37.1987V227.2V227.397H56.1321V227.2Z" fill="#007E77" mask="url(#path-355-inside-177_912_10375)"/>
<mask id="path-357-inside-178_912_10375" fill="white">
<path d="M56.1318 208.267H75.0652V227.2H56.1318V208.267Z"/>
</mask>
<path d="M75.0652 227.2V227.397H75.2624V227.2H75.0652ZM75.0652 208.267H74.8679V227.2H75.0652H75.2624V208.267H75.0652ZM75.0652 227.2V227.003H56.1318V227.2V227.397H75.0652V227.2Z" fill="#007E77" mask="url(#path-357-inside-178_912_10375)"/>
<mask id="path-359-inside-179_912_10375" fill="white">
<path d="M75.0654 208.267H93.9988V227.2H75.0654V208.267Z"/>
</mask>
<path d="M93.9988 227.2V227.397H94.196V227.2H93.9988ZM93.9988 208.267H93.8015V227.2H93.9988H94.196V208.267H93.9988ZM93.9988 227.2V227.003H75.0654V227.2V227.397H93.9988V227.2Z" fill="#007E77" mask="url(#path-359-inside-179_912_10375)"/>
<mask id="path-361-inside-180_912_10375" fill="white">
<path d="M93.9985 208.267H112.932V227.2H93.9985V208.267Z"/>
</mask>
<path d="M112.932 227.2V227.397H113.129V227.2H112.932ZM112.932 208.267H112.735V227.2H112.932H113.129V208.267H112.932ZM112.932 227.2V227.003H93.9985V227.2V227.397H112.932V227.2Z" fill="#007E77" mask="url(#path-361-inside-180_912_10375)"/>
<mask id="path-363-inside-181_912_10375" fill="white">
<path d="M112.932 208.267H131.865V227.2H112.932V208.267Z"/>
</mask>
<path d="M131.865 227.2V227.397H132.063V227.2H131.865ZM131.865 208.267H131.668V227.2H131.865H132.063V208.267H131.865ZM131.865 227.2V227.003H112.932V227.2V227.397H131.865V227.2Z" fill="#007E77" mask="url(#path-363-inside-181_912_10375)"/>
<mask id="path-365-inside-182_912_10375" fill="white">
<path d="M131.865 208.267H150.799V227.2H131.865V208.267Z"/>
</mask>
<path d="M150.799 227.2V227.397H150.996V227.2H150.799ZM150.799 208.267H150.601V227.2H150.799H150.996V208.267H150.799ZM150.799 227.2V227.003H131.865V227.2V227.397H150.799V227.2Z" fill="#007E77" mask="url(#path-365-inside-182_912_10375)"/>
<mask id="path-367-inside-183_912_10375" fill="white">
<path d="M150.799 208.267H169.732V227.2H150.799V208.267Z"/>
</mask>
<path d="M169.732 227.2V227.397H169.929V227.2H169.732ZM169.732 208.267H169.535V227.2H169.732H169.929V208.267H169.732ZM169.732 227.2V227.003H150.799V227.2V227.397H169.732V227.2Z" fill="#007E77" mask="url(#path-367-inside-183_912_10375)"/>
<mask id="path-369-inside-184_912_10375" fill="white">
<path d="M169.732 208.267H188.665V227.2H169.732V208.267Z"/>
</mask>
<path d="M188.665 227.2V227.397H188.862V227.2H188.665ZM188.665 208.267H188.468V227.2H188.665H188.862V208.267H188.665ZM188.665 227.2V227.003H169.732V227.2V227.397H188.665V227.2Z" fill="#007E77" mask="url(#path-369-inside-184_912_10375)"/>
<mask id="path-371-inside-185_912_10375" fill="white">
<path d="M188.666 208.267H207.599V227.2H188.666V208.267Z"/>
</mask>
<path d="M207.599 227.2V227.397H207.796V227.2H207.599ZM207.599 208.267H207.402V227.2H207.599H207.796V208.267H207.599ZM207.599 227.2V227.003H188.666V227.2V227.397H207.599V227.2Z" fill="#007E77" mask="url(#path-371-inside-185_912_10375)"/>
<mask id="path-373-inside-186_912_10375" fill="white">
<path d="M207.599 208.267H226.532V227.2H207.599V208.267Z"/>
</mask>
<path d="M226.532 227.2V227.397H226.729V227.2H226.532ZM226.532 208.267H226.335V227.2H226.532H226.729V208.267H226.532ZM226.532 227.2V227.003H207.599V227.2V227.397H226.532V227.2Z" fill="#007E77" mask="url(#path-373-inside-186_912_10375)"/>
<mask id="path-375-inside-187_912_10375" fill="white">
<path d="M226.532 208.267H245.466V227.2H226.532V208.267Z"/>
</mask>
<path d="M245.466 227.2V227.397H245.663V227.2H245.466ZM245.466 208.267H245.268V227.2H245.466H245.663V208.267H245.466ZM245.466 227.2V227.003H226.532V227.2V227.397H245.466V227.2Z" fill="#007E77" mask="url(#path-375-inside-187_912_10375)"/>
<mask id="path-377-inside-188_912_10375" fill="white">
<path d="M245.465 208.267H264.399V227.2H245.465V208.267Z"/>
</mask>
<path d="M245.465 208.267H264.399V227.2H245.465V208.267Z" fill="#007E77"/>
<path d="M264.399 227.2V227.397H264.596V227.2H264.399ZM264.399 208.267H264.201V227.2H264.399H264.596V208.267H264.399ZM264.399 227.2V227.003H245.465V227.2V227.397H264.399V227.2Z" fill="#007E77" mask="url(#path-377-inside-188_912_10375)"/>
<mask id="path-379-inside-189_912_10375" fill="white">
<path d="M264.398 208.267H283.332V227.2H264.398V208.267Z"/>
</mask>
<path d="M283.332 227.2V227.397H283.529V227.2H283.332ZM283.332 208.267H283.135V227.2H283.332H283.529V208.267H283.332ZM283.332 227.2V227.003H264.398V227.2V227.397H283.332V227.2Z" fill="#007E77" mask="url(#path-379-inside-189_912_10375)"/>
<mask id="path-381-inside-190_912_10375" fill="white">
<path d="M283.332 208.267H302.265V227.2H283.332V208.267Z"/>
</mask>
<path d="M302.265 227.2V227.397H302.463V227.2H302.265ZM302.265 208.267H302.068V227.2H302.265H302.463V208.267H302.265ZM302.265 227.2V227.003H283.332V227.2V227.397H302.265V227.2Z" fill="#007E77" mask="url(#path-381-inside-190_912_10375)"/>
<mask id="path-383-inside-191_912_10375" fill="white">
<path d="M302.265 208.267H321.198V227.2H302.265V208.267Z"/>
</mask>
<path d="M321.198 227.2V227.397H321.396V227.2H321.198ZM321.198 208.267H321.001V227.2H321.198H321.396V208.267H321.198ZM321.198 227.2V227.003H302.265V227.2V227.397H321.198V227.2Z" fill="#007E77" mask="url(#path-383-inside-191_912_10375)"/>
<mask id="path-385-inside-192_912_10375" fill="white">
<path d="M321.199 208.267H340.132V227.2H321.199V208.267Z"/>
</mask>
<path d="M340.132 227.2V227.397H340.329V227.2H340.132ZM340.132 208.267H339.935V227.2H340.132H340.329V208.267H340.132ZM340.132 227.2V227.003H321.199V227.2V227.397H340.132V227.2Z" fill="#007E77" mask="url(#path-385-inside-192_912_10375)"/>
<mask id="path-387-inside-193_912_10375" fill="white">
<path d="M37.1987 227.2H56.1321V246.134H37.1987V227.2Z"/>
</mask>
<path d="M56.1321 246.134V246.331H56.3293V246.134H56.1321ZM56.1321 227.2H55.9348V246.134H56.1321H56.3293V227.2H56.1321ZM56.1321 246.134V245.936H37.1987V246.134V246.331H56.1321V246.134Z" fill="#007E77" mask="url(#path-387-inside-193_912_10375)"/>
<mask id="path-389-inside-194_912_10375" fill="white">
<path d="M56.1318 227.2H75.0652V246.134H56.1318V227.2Z"/>
</mask>
<path d="M75.0652 246.134V246.331H75.2624V246.134H75.0652ZM75.0652 227.2H74.8679V246.134H75.0652H75.2624V227.2H75.0652ZM75.0652 246.134V245.936H56.1318V246.134V246.331H75.0652V246.134Z" fill="#007E77" mask="url(#path-389-inside-194_912_10375)"/>
<mask id="path-391-inside-195_912_10375" fill="white">
<path d="M75.0654 227.2H93.9988V246.134H75.0654V227.2Z"/>
</mask>
<path d="M93.9988 246.134V246.331H94.196V246.134H93.9988ZM93.9988 227.2H93.8015V246.134H93.9988H94.196V227.2H93.9988ZM93.9988 246.134V245.936H75.0654V246.134V246.331H93.9988V246.134Z" fill="#007E77" mask="url(#path-391-inside-195_912_10375)"/>
<mask id="path-393-inside-196_912_10375" fill="white">
<path d="M93.9985 227.2H112.932V246.134H93.9985V227.2Z"/>
</mask>
<path d="M112.932 246.134V246.331H113.129V246.134H112.932ZM112.932 227.2H112.735V246.134H112.932H113.129V227.2H112.932ZM112.932 246.134V245.936H93.9985V246.134V246.331H112.932V246.134Z" fill="#007E77" mask="url(#path-393-inside-196_912_10375)"/>
<mask id="path-395-inside-197_912_10375" fill="white">
<path d="M112.932 227.2H131.865V246.134H112.932V227.2Z"/>
</mask>
<path d="M131.865 246.134V246.331H132.063V246.134H131.865ZM131.865 227.2H131.668V246.134H131.865H132.063V227.2H131.865ZM131.865 246.134V245.936H112.932V246.134V246.331H131.865V246.134Z" fill="#007E77" mask="url(#path-395-inside-197_912_10375)"/>
<mask id="path-397-inside-198_912_10375" fill="white">
<path d="M131.865 227.2H150.799V246.134H131.865V227.2Z"/>
</mask>
<path d="M131.865 227.2H150.799V246.134H131.865V227.2Z" fill="#007E77"/>
<path d="M150.799 246.134V246.331H150.996V246.134H150.799ZM150.799 227.2H150.601V246.134H150.799H150.996V227.2H150.799ZM150.799 246.134V245.936H131.865V246.134V246.331H150.799V246.134Z" fill="#007E77" mask="url(#path-397-inside-198_912_10375)"/>
<mask id="path-399-inside-199_912_10375" fill="white">
<path d="M150.799 227.2H169.732V246.134H150.799V227.2Z"/>
</mask>
<path d="M169.732 246.134V246.331H169.929V246.134H169.732ZM169.732 227.2H169.535V246.134H169.732H169.929V227.2H169.732ZM169.732 246.134V245.936H150.799V246.134V246.331H169.732V246.134Z" fill="#007E77" mask="url(#path-399-inside-199_912_10375)"/>
<mask id="path-401-inside-200_912_10375" fill="white">
<path d="M169.732 227.2H188.665V246.134H169.732V227.2Z"/>
</mask>
<path d="M188.665 246.134V246.331H188.862V246.134H188.665ZM188.665 227.2H188.468V246.134H188.665H188.862V227.2H188.665ZM188.665 246.134V245.936H169.732V246.134V246.331H188.665V246.134Z" fill="#007E77" mask="url(#path-401-inside-200_912_10375)"/>
<mask id="path-403-inside-201_912_10375" fill="white">
<path d="M188.666 227.2H207.599V246.134H188.666V227.2Z"/>
</mask>
<path d="M207.599 246.134V246.331H207.796V246.134H207.599ZM207.599 227.2H207.402V246.134H207.599H207.796V227.2H207.599ZM207.599 246.134V245.936H188.666V246.134V246.331H207.599V246.134Z" fill="#007E77" mask="url(#path-403-inside-201_912_10375)"/>
<mask id="path-405-inside-202_912_10375" fill="white">
<path d="M207.599 227.2H226.532V246.134H207.599V227.2Z"/>
</mask>
<path d="M226.532 246.134V246.331H226.729V246.134H226.532ZM226.532 227.2H226.335V246.134H226.532H226.729V227.2H226.532ZM226.532 246.134V245.936H207.599V246.134V246.331H226.532V246.134Z" fill="#007E77" mask="url(#path-405-inside-202_912_10375)"/>
<mask id="path-407-inside-203_912_10375" fill="white">
<path d="M226.532 227.2H245.466V246.134H226.532V227.2Z"/>
</mask>
<path d="M245.466 246.134V246.331H245.663V246.134H245.466ZM245.466 227.2H245.268V246.134H245.466H245.663V227.2H245.466ZM245.466 246.134V245.936H226.532V246.134V246.331H245.466V246.134Z" fill="#007E77" mask="url(#path-407-inside-203_912_10375)"/>
<mask id="path-409-inside-204_912_10375" fill="white">
<path d="M245.465 227.2H264.399V246.134H245.465V227.2Z"/>
</mask>
<path d="M264.399 246.134V246.331H264.596V246.134H264.399ZM264.399 227.2H264.201V246.134H264.399H264.596V227.2H264.399ZM264.399 246.134V245.936H245.465V246.134V246.331H264.399V246.134Z" fill="#007E77" mask="url(#path-409-inside-204_912_10375)"/>
<mask id="path-411-inside-205_912_10375" fill="white">
<path d="M264.398 227.2H283.332V246.134H264.398V227.2Z"/>
</mask>
<path d="M283.332 246.134V246.331H283.529V246.134H283.332ZM283.332 227.2H283.135V246.134H283.332H283.529V227.2H283.332ZM283.332 246.134V245.936H264.398V246.134V246.331H283.332V246.134Z" fill="#007E77" mask="url(#path-411-inside-205_912_10375)"/>
<mask id="path-413-inside-206_912_10375" fill="white">
<path d="M283.332 227.2H302.265V246.134H283.332V227.2Z"/>
</mask>
<path d="M302.265 246.134V246.331H302.463V246.134H302.265ZM302.265 227.2H302.068V246.134H302.265H302.463V227.2H302.265ZM302.265 246.134V245.936H283.332V246.134V246.331H302.265V246.134Z" fill="#007E77" mask="url(#path-413-inside-206_912_10375)"/>
<mask id="path-415-inside-207_912_10375" fill="white">
<path d="M302.265 227.2H321.198V246.134H302.265V227.2Z"/>
</mask>
<path d="M321.198 246.134V246.331H321.396V246.134H321.198ZM321.198 227.2H321.001V246.134H321.198H321.396V227.2H321.198ZM321.198 246.134V245.936H302.265V246.134V246.331H321.198V246.134Z" fill="#007E77" mask="url(#path-415-inside-207_912_10375)"/>
<mask id="path-417-inside-208_912_10375" fill="white">
<path d="M321.199 227.2H340.132V246.134H321.199V227.2Z"/>
</mask>
<path d="M321.199 227.2H340.132V246.134H321.199V227.2Z" fill="#007E77"/>
<path d="M340.132 246.134V246.331H340.329V246.134H340.132ZM340.132 227.2H339.935V246.134H340.132H340.329V227.2H340.132ZM340.132 246.134V245.936H321.199V246.134V246.331H340.132V246.134Z" fill="#007E77" mask="url(#path-417-inside-208_912_10375)"/>
<mask id="path-419-inside-209_912_10375" fill="white">
<path d="M37.1987 246.134H56.1321V265.067H37.1987V246.134Z"/>
</mask>
<path d="M56.1321 265.067V265.264H56.3293V265.067H56.1321ZM56.1321 246.134H55.9348V265.067H56.1321H56.3293V246.134H56.1321ZM56.1321 265.067V264.87H37.1987V265.067V265.264H56.1321V265.067Z" fill="#007E77" mask="url(#path-419-inside-209_912_10375)"/>
<mask id="path-421-inside-210_912_10375" fill="white">
<path d="M56.1318 246.134H75.0652V265.067H56.1318V246.134Z"/>
</mask>
<path d="M75.0652 265.067V265.264H75.2624V265.067H75.0652ZM75.0652 246.134H74.8679V265.067H75.0652H75.2624V246.134H75.0652ZM75.0652 265.067V264.87H56.1318V265.067V265.264H75.0652V265.067Z" fill="#007E77" mask="url(#path-421-inside-210_912_10375)"/>
<mask id="path-423-inside-211_912_10375" fill="white">
<path d="M75.0654 246.134H93.9988V265.067H75.0654V246.134Z"/>
</mask>
<path d="M75.0654 246.134H93.9988V265.067H75.0654V246.134Z" fill="#007E77"/>
<path d="M93.9988 265.067V265.264H94.196V265.067H93.9988ZM93.9988 246.134H93.8015V265.067H93.9988H94.196V246.134H93.9988ZM93.9988 265.067V264.87H75.0654V265.067V265.264H93.9988V265.067Z" fill="#007E77" mask="url(#path-423-inside-211_912_10375)"/>
<mask id="path-425-inside-212_912_10375" fill="white">
<path d="M93.9985 246.134H112.932V265.067H93.9985V246.134Z"/>
</mask>
<path d="M112.932 265.067V265.264H113.129V265.067H112.932ZM112.932 246.134H112.735V265.067H112.932H113.129V246.134H112.932ZM112.932 265.067V264.87H93.9985V265.067V265.264H112.932V265.067Z" fill="#007E77" mask="url(#path-425-inside-212_912_10375)"/>
<mask id="path-427-inside-213_912_10375" fill="white">
<path d="M112.932 246.134H131.865V265.067H112.932V246.134Z"/>
</mask>
<path d="M131.865 265.067V265.264H132.063V265.067H131.865ZM131.865 246.134H131.668V265.067H131.865H132.063V246.134H131.865ZM131.865 265.067V264.87H112.932V265.067V265.264H131.865V265.067Z" fill="#007E77" mask="url(#path-427-inside-213_912_10375)"/>
<mask id="path-429-inside-214_912_10375" fill="white">
<path d="M131.865 246.134H150.799V265.067H131.865V246.134Z"/>
</mask>
<path d="M150.799 265.067V265.264H150.996V265.067H150.799ZM150.799 246.134H150.601V265.067H150.799H150.996V246.134H150.799ZM150.799 265.067V264.87H131.865V265.067V265.264H150.799V265.067Z" fill="#007E77" mask="url(#path-429-inside-214_912_10375)"/>
<mask id="path-431-inside-215_912_10375" fill="white">
<path d="M150.799 246.134H169.732V265.067H150.799V246.134Z"/>
</mask>
<path d="M169.732 265.067V265.264H169.929V265.067H169.732ZM169.732 246.134H169.535V265.067H169.732H169.929V246.134H169.732ZM169.732 265.067V264.87H150.799V265.067V265.264H169.732V265.067Z" fill="#007E77" mask="url(#path-431-inside-215_912_10375)"/>
<mask id="path-433-inside-216_912_10375" fill="white">
<path d="M169.732 246.134H188.665V265.067H169.732V246.134Z"/>
</mask>
<path d="M188.665 265.067V265.264H188.862V265.067H188.665ZM188.665 246.134H188.468V265.067H188.665H188.862V246.134H188.665ZM188.665 265.067V264.87H169.732V265.067V265.264H188.665V265.067Z" fill="#007E77" mask="url(#path-433-inside-216_912_10375)"/>
<mask id="path-435-inside-217_912_10375" fill="white">
<path d="M188.666 246.134H207.599V265.067H188.666V246.134Z"/>
</mask>
<path d="M188.666 246.134H207.599V265.067H188.666V246.134Z" fill="#007E77"/>
<path d="M207.599 265.067V265.264H207.796V265.067H207.599ZM207.599 246.134H207.402V265.067H207.599H207.796V246.134H207.599ZM207.599 265.067V264.87H188.666V265.067V265.264H207.599V265.067Z" fill="#007E77" mask="url(#path-435-inside-217_912_10375)"/>
<mask id="path-437-inside-218_912_10375" fill="white">
<path d="M207.599 246.134H226.532V265.067H207.599V246.134Z"/>
</mask>
<path d="M226.532 265.067V265.264H226.729V265.067H226.532ZM226.532 246.134H226.335V265.067H226.532H226.729V246.134H226.532ZM226.532 265.067V264.87H207.599V265.067V265.264H226.532V265.067Z" fill="#007E77" mask="url(#path-437-inside-218_912_10375)"/>
<mask id="path-439-inside-219_912_10375" fill="white">
<path d="M226.532 246.134H245.466V265.067H226.532V246.134Z"/>
</mask>
<path d="M245.466 265.067V265.264H245.663V265.067H245.466ZM245.466 246.134H245.268V265.067H245.466H245.663V246.134H245.466ZM245.466 265.067V264.87H226.532V265.067V265.264H245.466V265.067Z" fill="#007E77" mask="url(#path-439-inside-219_912_10375)"/>
<mask id="path-441-inside-220_912_10375" fill="white">
<path d="M245.465 246.134H264.399V265.067H245.465V246.134Z"/>
</mask>
<path d="M264.399 265.067V265.264H264.596V265.067H264.399ZM264.399 246.134H264.201V265.067H264.399H264.596V246.134H264.399ZM264.399 265.067V264.87H245.465V265.067V265.264H264.399V265.067Z" fill="#007E77" mask="url(#path-441-inside-220_912_10375)"/>
<mask id="path-443-inside-221_912_10375" fill="white">
<path d="M264.398 246.134H283.332V265.067H264.398V246.134Z"/>
</mask>
<path d="M283.332 265.067V265.264H283.529V265.067H283.332ZM283.332 246.134H283.135V265.067H283.332H283.529V246.134H283.332ZM283.332 265.067V264.87H264.398V265.067V265.264H283.332V265.067Z" fill="#007E77" mask="url(#path-443-inside-221_912_10375)"/>
<mask id="path-445-inside-222_912_10375" fill="white">
<path d="M283.332 246.134H302.265V265.067H283.332V246.134Z"/>
</mask>
<path d="M302.265 265.067V265.264H302.463V265.067H302.265ZM302.265 246.134H302.068V265.067H302.265H302.463V246.134H302.265ZM302.265 265.067V264.87H283.332V265.067V265.264H302.265V265.067Z" fill="#007E77" mask="url(#path-445-inside-222_912_10375)"/>
<mask id="path-447-inside-223_912_10375" fill="white">
<path d="M302.265 246.134H321.198V265.067H302.265V246.134Z"/>
</mask>
<path d="M321.198 265.067V265.264H321.396V265.067H321.198ZM321.198 246.134H321.001V265.067H321.198H321.396V246.134H321.198ZM321.198 265.067V264.87H302.265V265.067V265.264H321.198V265.067Z" fill="#007E77" mask="url(#path-447-inside-223_912_10375)"/>
<mask id="path-449-inside-224_912_10375" fill="white">
<path d="M321.199 246.134H340.132V265.067H321.199V246.134Z"/>
</mask>
<path d="M340.132 265.067V265.264H340.329V265.067H340.132ZM340.132 246.134H339.935V265.067H340.132H340.329V246.134H340.132ZM340.132 265.067V264.87H321.199V265.067V265.264H340.132V265.067Z" fill="#007E77" mask="url(#path-449-inside-224_912_10375)"/>
<mask id="path-451-inside-225_912_10375" fill="white">
<path d="M37.1987 265.066H56.1321V284H37.1987V265.066Z"/>
</mask>
<path d="M37.1987 265.066H56.1321V284H37.1987V265.066Z" fill="#007E77"/>
<path d="M56.1321 284V284.197H56.3293V284H56.1321ZM56.1321 265.066H55.9348V284H56.1321H56.3293V265.066H56.1321ZM56.1321 284V283.803H37.1987V284V284.197H56.1321V284Z" fill="#007E77" mask="url(#path-451-inside-225_912_10375)"/>
<mask id="path-453-inside-226_912_10375" fill="white">
<path d="M56.1318 265.066H75.0652V284H56.1318V265.066Z"/>
</mask>
<path d="M75.0652 284V284.197H75.2624V284H75.0652ZM75.0652 265.066H74.8679V284H75.0652H75.2624V265.066H75.0652ZM75.0652 284V283.803H56.1318V284V284.197H75.0652V284Z" fill="#007E77" mask="url(#path-453-inside-226_912_10375)"/>
<mask id="path-455-inside-227_912_10375" fill="white">
<path d="M75.0654 265.066H93.9988V284H75.0654V265.066Z"/>
</mask>
<path d="M93.9988 284V284.197H94.196V284H93.9988ZM93.9988 265.066H93.8015V284H93.9988H94.196V265.066H93.9988ZM93.9988 284V283.803H75.0654V284V284.197H93.9988V284Z" fill="#007E77" mask="url(#path-455-inside-227_912_10375)"/>
<mask id="path-457-inside-228_912_10375" fill="white">
<path d="M93.9985 265.066H112.932V284H93.9985V265.066Z"/>
</mask>
<path d="M112.932 284V284.197H113.129V284H112.932ZM112.932 265.066H112.735V284H112.932H113.129V265.066H112.932ZM112.932 284V283.803H93.9985V284V284.197H112.932V284Z" fill="#007E77" mask="url(#path-457-inside-228_912_10375)"/>
<mask id="path-459-inside-229_912_10375" fill="white">
<path d="M112.932 265.066H131.865V284H112.932V265.066Z"/>
</mask>
<path d="M131.865 284V284.197H132.063V284H131.865ZM131.865 265.066H131.668V284H131.865H132.063V265.066H131.865ZM131.865 284V283.803H112.932V284V284.197H131.865V284Z" fill="#007E77" mask="url(#path-459-inside-229_912_10375)"/>
<mask id="path-461-inside-230_912_10375" fill="white">
<path d="M131.865 265.066H150.799V284H131.865V265.066Z"/>
</mask>
<path d="M150.799 284V284.197H150.996V284H150.799ZM150.799 265.066H150.601V284H150.799H150.996V265.066H150.799ZM150.799 284V283.803H131.865V284V284.197H150.799V284Z" fill="#007E77" mask="url(#path-461-inside-230_912_10375)"/>
<mask id="path-463-inside-231_912_10375" fill="white">
<path d="M150.799 265.066H169.732V284H150.799V265.066Z"/>
</mask>
<path d="M169.732 284V284.197H169.929V284H169.732ZM169.732 265.066H169.535V284H169.732H169.929V265.066H169.732ZM169.732 284V283.803H150.799V284V284.197H169.732V284Z" fill="#007E77" mask="url(#path-463-inside-231_912_10375)"/>
<mask id="path-465-inside-232_912_10375" fill="white">
<path d="M169.732 265.066H188.665V284H169.732V265.066Z"/>
</mask>
<path d="M188.665 284V284.197H188.862V284H188.665ZM188.665 265.066H188.468V284H188.665H188.862V265.066H188.665ZM188.665 284V283.803H169.732V284V284.197H188.665V284Z" fill="#007E77" mask="url(#path-465-inside-232_912_10375)"/>
<mask id="path-467-inside-233_912_10375" fill="white">
<path d="M188.666 265.066H207.599V284H188.666V265.066Z"/>
</mask>
<path d="M207.599 284V284.197H207.796V284H207.599ZM207.599 265.066H207.402V284H207.599H207.796V265.066H207.599ZM207.599 284V283.803H188.666V284V284.197H207.599V284Z" fill="#007E77" mask="url(#path-467-inside-233_912_10375)"/>
<mask id="path-469-inside-234_912_10375" fill="white">
<path d="M207.599 265.066H226.532V284H207.599V265.066Z"/>
</mask>
<path d="M226.532 284V284.197H226.729V284H226.532ZM226.532 265.066H226.335V284H226.532H226.729V265.066H226.532ZM226.532 284V283.803H207.599V284V284.197H226.532V284Z" fill="#007E77" mask="url(#path-469-inside-234_912_10375)"/>
<mask id="path-471-inside-235_912_10375" fill="white">
<path d="M226.532 265.066H245.466V284H226.532V265.066Z"/>
</mask>
<path d="M245.466 284V284.197H245.663V284H245.466ZM245.466 265.066H245.268V284H245.466H245.663V265.066H245.466ZM245.466 284V283.803H226.532V284V284.197H245.466V284Z" fill="#007E77" mask="url(#path-471-inside-235_912_10375)"/>
<mask id="path-473-inside-236_912_10375" fill="white">
<path d="M245.465 265.066H264.399V284H245.465V265.066Z"/>
</mask>
<path d="M264.399 284V284.197H264.596V284H264.399ZM264.399 265.066H264.201V284H264.399H264.596V265.066H264.399ZM264.399 284V283.803H245.465V284V284.197H264.399V284Z" fill="#007E77" mask="url(#path-473-inside-236_912_10375)"/>
<mask id="path-475-inside-237_912_10375" fill="white">
<path d="M264.398 265.066H283.332V284H264.398V265.066Z"/>
</mask>
<path d="M283.332 284V284.197H283.529V284H283.332ZM283.332 265.066H283.135V284H283.332H283.529V265.066H283.332ZM283.332 284V283.803H264.398V284V284.197H283.332V284Z" fill="#007E77" mask="url(#path-475-inside-237_912_10375)"/>
<mask id="path-477-inside-238_912_10375" fill="white">
<path d="M283.332 265.066H302.265V284H283.332V265.066Z"/>
</mask>
<path d="M283.332 265.066H302.265V284H283.332V265.066Z" fill="#007E77"/>
<path d="M302.265 284V284.197H302.463V284H302.265ZM302.265 265.066H302.068V284H302.265H302.463V265.066H302.265ZM302.265 284V283.803H283.332V284V284.197H302.265V284Z" fill="#007E77" mask="url(#path-477-inside-238_912_10375)"/>
<mask id="path-479-inside-239_912_10375" fill="white">
<path d="M302.265 265.066H321.198V284H302.265V265.066Z"/>
</mask>
<path d="M321.198 284V284.197H321.396V284H321.198ZM321.198 265.066H321.001V284H321.198H321.396V265.066H321.198ZM321.198 284V283.803H302.265V284V284.197H321.198V284Z" fill="#007E77" mask="url(#path-479-inside-239_912_10375)"/>
<mask id="path-481-inside-240_912_10375" fill="white">
<path d="M321.199 265.066H340.132V284H321.199V265.066Z"/>
</mask>
<path d="M340.132 284V284.197H340.329V284H340.132ZM340.132 265.066H339.935V284H340.132H340.329V265.066H340.132ZM340.132 284V283.803H321.199V284V284.197H340.132V284Z" fill="#007E77" mask="url(#path-481-inside-240_912_10375)"/>
</g>
<rect x="-0.569358" y="0.0986111" width="378.469" height="283.803" stroke="#007E77" stroke-width="0.197222"/>
</g>
</g>
<defs>
<radialGradient id="paint0_radial_912_10375" cx="0" cy="0" r="1" gradientUnits="userSpaceOnUse" gradientTransform="translate(142 -3.38554e-05) rotate(90) scale(284 148.23)">
<stop/>
<stop offset="0.953125" stop-opacity="0"/>
</radialGradient>
<clipPath id="clip0_912_10375">
<rect x="-0.667969" width="378.667" height="284" fill="white"/>
</clipPath>
</defs>
</svg>
