<svg width="44" height="44" viewBox="0 0 44 44" fill="none" xmlns="http://www.w3.org/2000/svg">
<g filter="url(#filter0_ii_912_10172)">
<rect width="44" height="44" rx="5" fill="white"/>
<rect x="0.5" y="0.5" width="43" height="43" rx="4.5" stroke="#D6D6D6"/>
<path d="M14.8008 14.8004C14.8008 13.4766 15.877 12.4004 17.2008 12.4004H26.8008C28.1245 12.4004 29.2008 13.4766 29.2008 14.8004V30.4416C29.2008 31.4016 28.132 31.9716 27.3333 31.4391L22.0008 27.8804L16.6683 31.4391C15.8695 31.9716 14.8008 31.3979 14.8008 30.4416V14.8004ZM17.2008 14.2004C16.8708 14.2004 16.6008 14.4704 16.6008 14.8004V29.3204L21.0033 26.3879C21.607 25.9866 22.3945 25.9866 22.9983 26.3879L27.4008 29.3204V14.8004C27.4008 14.4704 27.1308 14.2004 26.8008 14.2004H17.2008Z" fill="#A3A3A3"/>
</g>
<defs>
<filter id="filter0_ii_912_10172" x="0" y="0" width="44" height="44" filterUnits="userSpaceOnUse" color-interpolation-filters="sRGB">
<feFlood flood-opacity="0" result="BackgroundImageFix"/>
<feBlend mode="normal" in="SourceGraphic" in2="BackgroundImageFix" result="shape"/>
<feColorMatrix in="SourceAlpha" type="matrix" values="0 0 0 0 0 0 0 0 0 0 0 0 0 0 0 0 0 0 127 0" result="hardAlpha"/>
<feOffset dy="-2"/>
<feComposite in2="hardAlpha" operator="arithmetic" k2="-1" k3="1"/>
<feColorMatrix type="matrix" values="0 0 0 0 0 0 0 0 0 0 0 0 0 0 0 0 0 0 0.05 0"/>
<feBlend mode="normal" in2="shape" result="effect1_innerShadow_912_10172"/>
<feColorMatrix in="SourceAlpha" type="matrix" values="0 0 0 0 0 0 0 0 0 0 0 0 0 0 0 0 0 0 127 0" result="hardAlpha"/>
<feMorphology radius="1" operator="erode" in="SourceAlpha" result="effect2_innerShadow_912_10172"/>
<feOffset/>
<feComposite in2="hardAlpha" operator="arithmetic" k2="-1" k3="1"/>
<feColorMatrix type="matrix" values="0 0 0 0 0 0 0 0 0 0 0 0 0 0 0 0 0 0 0.18 0"/>
<feBlend mode="normal" in2="effect1_innerShadow_912_10172" result="effect2_innerShadow_912_10172"/>
</filter>
</defs>
</svg>
