<svg width="44" height="44" viewBox="0 0 44 44" fill="none" xmlns="http://www.w3.org/2000/svg">
<path d="M27.6002 19.6C27.6002 17.4783 26.7573 15.4434 25.257 13.9432C23.7568 12.4429 21.7219 11.6 19.6002 11.6C17.4785 11.6 15.4436 12.4429 13.9433 13.9432C12.4431 15.4434 11.6002 17.4783 11.6002 19.6C11.6002 21.7217 12.4431 23.7566 13.9433 25.2569C15.4436 26.7572 17.4785 27.6 19.6002 27.6C21.7219 27.6 23.7568 26.7572 25.257 25.2569C26.7573 23.7566 27.6002 21.7217 27.6002 19.6ZM26.0552 27.755C24.2852 29.16 22.0402 30 19.6002 30C13.8552 30 9.2002 25.345 9.2002 19.6C9.2002 13.855 13.8552 9.20001 19.6002 9.20001C25.3452 9.20001 30.0002 13.855 30.0002 19.6C30.0002 22.04 29.1602 24.285 27.7552 26.055L34.4502 32.75C34.9202 33.22 34.9202 33.98 34.4502 34.445C33.9802 34.91 33.2202 34.915 32.7552 34.445L26.0552 27.755Z" fill="white"/>
</svg>
