<svg width="16" height="16" viewBox="0 0 16 16" fill="none" xmlns="http://www.w3.org/2000/svg">
<path d="M5.60039 1.59961C5.15789 1.59961 4.80039 1.95711 4.80039 2.39961V3.19961H4.00039C3.11789 3.19961 2.40039 3.91711 2.40039 4.79961V5.99961H13.6004V4.79961C13.6004 3.91711 12.8829 3.19961 12.0004 3.19961H11.2004V2.39961C11.2004 1.95711 10.8429 1.59961 10.4004 1.59961C9.95789 1.59961 9.60039 1.95711 9.60039 2.39961V3.19961H6.40039V2.39961C6.40039 1.95711 6.04289 1.59961 5.60039 1.59961ZM2.40039 7.19961V11.9996C2.40039 12.8821 3.11789 13.5996 4.00039 13.5996H12.0004C12.8829 13.5996 13.6004 12.8821 13.6004 11.9996V7.19961H2.40039Z" fill="#03BFB5"/>
</svg>
