<svg width="32" height="32" viewBox="0 0 32 32" fill="none" xmlns="http://www.w3.org/2000/svg">
<rect width="32" height="32" rx="8" fill="#F5F5F5"/>
<path d="M11 20C10.7348 20 10.4804 19.8946 10.2929 19.7071C10.1054 19.5196 10 19.2652 10 19C10 18.7348 10.1054 18.4804 10.2929 18.2929C10.4804 18.1054 10.7348 18 11 18C11.2652 18 11.5196 18.1054 11.7071 18.2929C11.8946 18.4804 12 18.7348 12 19C12 19.2652 11.8946 19.5196 11.7071 19.7071C11.5196 19.8946 11.2652 20 11 20ZM13.8281 18C13.4156 16.8344 12.3063 16 11 16C9.34375 16 8 17.3438 8 19C8 20.6562 9.34375 22 11 22C12.3063 22 13.4187 21.1656 13.8281 20H23C23.5531 20 24 19.5531 24 19C24 18.4469 23.5531 18 23 18H13.8281ZM22 13C22 13.2652 21.8946 13.5196 21.7071 13.7071C21.5196 13.8946 21.2652 14 21 14C20.7348 14 20.4804 13.8946 20.2929 13.7071C20.1054 13.5196 20 13.2652 20 13C20 12.7348 20.1054 12.4804 20.2929 12.2929C20.4804 12.1054 20.7348 12 21 12C21.2652 12 21.5196 12.1054 21.7071 12.2929C21.8946 12.4804 22 12.7348 22 13ZM18.1719 12H9C8.44687 12 8 12.4469 8 13C8 13.5531 8.44687 14 9 14H18.1719C18.5844 15.1656 19.6938 16 21 16C22.6562 16 24 14.6562 24 13C24 11.3438 22.6562 10 21 10C19.6938 10 18.5813 10.8344 18.1719 12Z" fill="#292929"/>
</svg>
