<svg width="20" height="20" viewBox="0 0 20 20" fill="none" xmlns="http://www.w3.org/2000/svg">
<path d="M4 4.5C3.725 4.5 3.5 4.725 3.5 5V13C3.5 13.275 3.725 13.5 4 13.5H16C16.275 13.5 16.5 13.275 16.5 13V5C16.5 4.725 16.275 4.5 16 4.5H4ZM2 5C2 3.89688 2.89688 3 4 3H16C17.1031 3 18 3.89688 18 5V13C18 14.1031 17.1031 15 16 15H12.3844L12.6344 16.5H14.25C14.6656 16.5 15 16.8344 15 17.25C15 17.6656 14.6656 18 14.25 18H5.75C5.33437 18 5 17.6656 5 17.25C5 16.8344 5.33437 16.5 5.75 16.5H7.36562L7.61562 15H4C2.89688 15 2 14.1031 2 13L2 5ZM9.13438 15L8.88438 16.5H11.1125L10.8625 15H9.13438Z" fill="#007E77"/>
</svg>
