<svg width="20" height="20" viewBox="0 0 20 20" fill="none" xmlns="http://www.w3.org/2000/svg">
<path d="M4.5 2.75C4.5 2.33437 4.16562 2 3.75 2C3.33437 2 3 2.33437 3 2.75V17.25C3 17.6656 3.33437 18 3.75 18C4.16562 18 4.5 17.6656 4.5 17.25V14.125L7.00938 13.4969C8.29375 13.175 9.65312 13.325 10.8375 13.9156C12.2188 14.6062 13.8219 14.6906 15.2656 14.1469L16.35 13.7406C16.7406 13.5938 17 13.2219 17 12.8031V4.0625C17 3.34375 16.2438 2.875 15.6 3.19687L15.3 3.34687C13.8531 4.07188 12.15 4.07188 10.7031 3.34687C9.60625 2.79687 8.34688 2.65938 7.15625 2.95625L4.5 3.625V2.75ZM4.5 5.17188L7.51875 4.41563C8.3625 4.20625 9.25313 4.30312 10.0312 4.69062C11.7469 5.54688 13.7406 5.61875 15.5 4.90313V12.4594L14.7375 12.7437C13.6844 13.1375 12.5125 13.0781 11.5063 12.575C10 11.8219 8.27812 11.6344 6.64375 12.0406L4.5 12.5781V5.17188Z" fill="#007E77"/>
</svg>
