<svg width="44" height="44" viewBox="0 0 44 44" fill="none" xmlns="http://www.w3.org/2000/svg">
<rect width="44" height="44" rx="8" fill="url(#paint0_linear_912_10680)"/>
<path d="M24.0057 24.7041C23.4086 25.1021 22.7151 25.3126 22 25.3126C21.285 25.3126 20.5914 25.1021 19.9943 24.7041L10.1598 18.1475C10.1052 18.1111 10.0521 18.0732 10 18.0342V28.7778C10 30.0096 10.9996 30.9872 12.2094 30.9872H31.7906C33.0224 30.9872 34 29.9876 34 28.7778V18.0342C33.9478 18.0733 33.8945 18.1113 33.8398 18.1477L24.0057 24.7041Z" fill="white"/>
<path d="M10.9398 16.9779L20.7744 23.5345C21.1466 23.7827 21.5733 23.9068 22 23.9068C22.4267 23.9068 22.8534 23.7827 23.2256 23.5345L33.0602 16.9779C33.6487 16.5858 34 15.9296 34 15.2213C34 14.0034 33.0092 13.0127 31.7914 13.0127H12.2086C10.9908 13.0127 10 14.0035 10 15.2225C10 15.9296 10.3514 16.5858 10.9398 16.9779Z" fill="white"/>
<defs>
<linearGradient id="paint0_linear_912_10680" x1="-0.000685211" y1="43.9997" x2="43.9995" y2="-0.000535721" gradientUnits="userSpaceOnUse">
<stop stop-color="#181D27"/>
<stop offset="1" stop-color="#414651"/>
</linearGradient>
</defs>
</svg>
