<svg width="52" height="52" viewBox="0 0 52 52" fill="none" xmlns="http://www.w3.org/2000/svg">
<rect width="52" height="52" rx="3.25" fill="#007E77"/>
<path fill-rule="evenodd" clip-rule="evenodd" d="M25.9993 15.4998C20.2004 15.4998 15.4993 20.2009 15.4993 25.9998C15.4993 26.6442 14.977 27.1665 14.3327 27.1665C13.6884 27.1665 13.166 26.6442 13.166 25.9998C13.166 18.9122 18.9117 13.1665 25.9993 13.1665C29.6777 13.1665 32.9937 14.7144 35.3327 17.1919V14.3332C35.3327 13.6888 35.855 13.1665 36.4994 13.1665C37.1437 13.1665 37.666 13.6888 37.666 14.3332V20.1665C37.666 20.8108 37.1437 21.3332 36.4994 21.3332H36.1275C36.1134 21.3334 36.0992 21.3334 36.0851 21.3332H30.666C30.0217 21.3332 29.4993 20.8108 29.4993 20.1665C29.4993 19.5222 30.0217 18.9998 30.666 18.9998H33.8259C31.9023 16.8505 29.1082 15.4998 25.9993 15.4998ZM25.9993 36.4998C31.7984 36.4998 36.4994 31.7989 36.4994 25.9998C36.4994 25.3555 37.0217 24.8332 37.666 24.8332C38.3104 24.8332 38.8327 25.3555 38.8327 25.9998C38.8327 33.0875 33.087 38.8332 25.9993 38.8332C22.321 38.8332 19.0049 37.2852 16.666 34.8078V37.6665C16.666 38.3109 16.1437 38.8332 15.4993 38.8332C14.855 38.8332 14.3327 38.3109 14.3327 37.6665V31.8332C14.3327 31.1888 14.855 30.6665 15.4993 30.6665H15.8711C15.8853 30.6663 15.8995 30.6663 15.9136 30.6665H21.3327C21.977 30.6665 22.4993 31.1888 22.4993 31.8332C22.4993 32.4775 21.977 32.9998 21.3327 32.9998H18.1728C20.0964 35.1492 22.8906 36.4998 25.9993 36.4998Z" fill="white"/>
</svg>
