<svg width="52" height="52" viewBox="0 0 52 52" fill="none" xmlns="http://www.w3.org/2000/svg">
<rect width="52" height="52" rx="3.25" fill="#007E77"/>
<path d="M39.1793 38.3593H38.3043V22.1719C38.3043 21.7188 37.937 21.3516 37.484 21.3516H34.2028C33.7498 21.3516 33.3825 21.7188 33.3825 22.1719V38.3593H31.7419V27.6406C31.7419 27.1876 31.3746 26.8203 30.9216 26.8203H27.6404C27.1874 26.8203 26.8201 27.1876 26.8201 27.6406V38.3593H25.1795V30.6484C25.1795 30.1954 24.8122 29.8281 24.3592 29.8281H21.078C20.625 29.8281 20.2577 30.1954 20.2577 30.6484V38.3593H18.6171V32.6171C18.6171 32.1641 18.2498 31.7968 17.7968 31.7968H14.5156C14.0626 31.7968 13.6953 32.1641 13.6953 32.6171V38.3593H12.8203C12.3673 38.3593 12 38.7266 12 39.1796C12 39.6326 12.3673 39.9999 12.8203 39.9999H39.1793C39.6323 39.9999 39.9996 39.6326 39.9996 39.1796C39.9996 38.7266 39.6323 38.3593 39.1793 38.3593Z" fill="white"/>
<path d="M12.8203 29.6261C17.94 29.6261 23.4919 27.7874 28.4534 24.4487C32.3391 21.8338 35.5783 18.4934 37.5903 15.0728L38.387 18.046C38.4852 18.4125 38.9594 18.7292 39.3916 18.626C39.8323 18.5209 40.0889 18.059 39.9716 17.6214L38.6284 12.6082C38.5111 12.1706 38.0615 11.9109 37.6237 12.0282L32.6106 13.3715C32.173 13.4887 31.9133 13.9385 32.0306 14.3761C32.1479 14.8137 32.5975 15.0735 33.0352 14.9561L36.2648 14.0908C34.3876 17.3526 31.2854 20.5654 27.5374 23.0875C22.8438 26.246 17.6171 27.9855 12.8203 27.9855C12.3673 27.9855 12 28.3528 12 28.8058C12 29.2588 12.3673 29.6261 12.8203 29.6261Z" fill="white"/>
</svg>
