<svg width="52" height="52" viewBox="0 0 52 52" fill="none" xmlns="http://www.w3.org/2000/svg">
<rect width="52" height="52" rx="3.25" fill="#007E77"/>
<g clip-path="url(#clip0_912_9449)">
<path fill-rule="evenodd" clip-rule="evenodd" d="M35.0794 24.9198C36.6644 26.6762 37.846 28.2 38.6242 29.5663C41.4741 34.5703 37.4199 39.6527 31.9904 39.5612C26.5608 39.6527 22.5066 34.5703 25.3565 29.5663C26.1347 28.2 27.3164 26.6762 28.9013 24.9198C29.0905 24.9797 29.2917 25.0121 29.5003 25.0121H34.4803C34.689 25.0121 34.8902 24.9797 35.0794 24.9198ZM14.9239 12.4375C13.5564 12.4375 12.4375 13.5564 12.4375 14.9239V33.1008C12.4375 34.4684 13.5564 35.5873 14.9239 35.5873H24.0801C23.1852 33.4489 23.456 31.1354 24.5962 29.1333C24.8291 28.7244 25.0846 28.3191 25.357 27.9187C25.1995 27.8167 25.0948 27.6394 25.0948 27.4384V26.6954C25.0948 26.3805 25.3516 26.1238 25.6664 26.1238H26.7031C27.1665 25.5542 27.6486 24.9998 28.1311 24.4646C27.9887 24.3295 27.8662 24.1735 27.7684 24.0017H25.6664C25.3516 24.0017 25.0948 23.745 25.0948 23.4301V22.687C25.0948 22.3721 25.3516 22.1154 25.6664 22.1154H27.7276C27.9052 21.7695 28.1812 21.4818 28.5182 21.2897L27.9242 20.6957C27.5626 20.3342 27.3672 19.8679 27.3375 19.3931H15.7527C15.4379 19.3931 15.1811 19.1364 15.1811 18.8216V16.578C15.1811 16.2632 15.4379 16.0064 15.7527 16.0064H28.3279C28.6428 16.0064 28.8995 16.2632 28.8995 16.578V17.2973C29.3029 17.2048 29.7319 17.2356 30.124 17.3964C30.3892 16.7618 30.9643 16.3007 31.6432 16.1818V14.9239C31.6432 13.5564 30.5243 12.4375 29.1568 12.4375H14.9239ZM29.5004 24.1371C28.8864 24.1371 28.3841 23.6348 28.3841 23.0208C28.3841 22.4069 28.8864 21.9046 29.5004 21.9046H34.4804C35.0944 21.9046 35.5967 22.4069 35.5967 23.0209C35.5967 23.6348 35.0944 24.1371 34.4804 24.1371H29.5004ZM16.2779 22.1154H18.4142C18.7291 22.1154 18.9858 22.3721 18.9858 22.687V23.4301C18.9858 23.7449 18.7291 24.0017 18.4142 24.0017H16.2779C15.963 24.0017 15.7063 23.7449 15.7063 23.4301V22.687C15.7063 22.3721 15.963 22.1154 16.2779 22.1154ZM20.9721 30.1321C20.6573 30.1321 20.4005 30.3888 20.4005 30.7037V31.4468C20.4005 31.7616 20.6573 32.0184 20.9721 32.0184H23.1085C23.4233 32.0184 23.6801 31.7616 23.6801 31.4468V30.7037C23.6801 30.3888 23.4233 30.1321 23.1085 30.1321H20.9721ZM16.2779 30.1321H18.4142C18.7291 30.1321 18.9858 30.3888 18.9858 30.7037V31.4468C18.9858 31.7616 18.7291 32.0184 18.4142 32.0184H16.2779C15.963 32.0184 15.7063 31.7616 15.7063 31.4468V30.7037C15.7063 30.3888 15.963 30.1321 16.2779 30.1321ZM20.9721 26.1237C20.6573 26.1237 20.4005 26.3805 20.4005 26.6953V27.4384C20.4005 27.7532 20.6573 28.01 20.9721 28.01H23.1085C23.4233 28.01 23.6801 27.7532 23.6801 27.4384V26.6953C23.6801 26.3805 23.4233 26.1237 23.1085 26.1237H20.9721ZM16.2779 26.1237H18.4142C18.7291 26.1237 18.9858 26.3805 18.9858 26.6953V27.4384C18.9858 27.7532 18.7291 28.01 18.4142 28.01H16.2779C15.963 28.01 15.7063 27.7532 15.7063 27.4384V26.6953C15.7063 26.3805 15.963 26.1237 16.2779 26.1237ZM20.9721 22.1154H23.1085C23.4233 22.1154 23.6801 22.3721 23.6801 22.687V23.4301C23.6801 23.7449 23.4233 24.0017 23.1085 24.0017H20.9721C20.6573 24.0017 20.4005 23.7449 20.4005 23.4301V22.687C20.4005 22.3721 20.6573 22.1154 20.9721 22.1154ZM31.9331 34.3117C31.5976 34.303 31.272 34.2121 31.0124 34.0392C30.7774 33.8828 30.598 33.6539 30.523 33.3532C30.4562 33.0818 30.1821 32.9159 29.9106 32.9827C29.6392 33.0494 29.4733 33.3236 29.5401 33.595C29.6817 34.1629 30.0165 34.5923 30.4536 34.8834C30.7521 35.0823 31.0988 35.2137 31.4619 35.2777V35.6715C31.4619 35.9517 31.689 36.1789 31.9692 36.1789C32.2494 36.1789 32.4765 35.9518 32.4765 35.6715V35.2874C32.9177 35.2201 33.3673 35.0591 33.7202 34.7913C34.1444 34.4695 34.4265 34.0087 34.4118 33.3902C34.4101 33.3194 34.4061 33.2571 34.3996 33.2039C34.3174 32.5262 33.9507 32.0851 33.4646 31.7916C33.0376 31.5337 32.5255 31.4053 32.056 31.3283C31.7174 31.2726 31.3607 31.1786 31.0995 31.0081C30.8971 30.8759 30.752 30.6846 30.7383 30.405C30.7236 30.1023 30.8558 29.8581 31.064 29.6889C31.227 29.5563 31.4351 29.4642 31.6606 29.4188C31.7513 29.4005 31.8447 29.39 31.939 29.3875C31.949 29.3881 31.959 29.3884 31.9692 29.3884C31.9814 29.3884 31.9935 29.388 32.0055 29.3871C32.1302 29.3889 32.2558 29.405 32.3785 29.436C32.7556 29.5316 33.0989 29.7802 33.2798 30.2108C33.3881 30.4691 33.6854 30.5906 33.9436 30.4823C34.2019 30.374 34.3234 30.0767 34.2151 29.8184C33.8967 29.0601 33.2906 28.622 32.6242 28.4531C32.5753 28.4407 32.5261 28.4298 32.4765 28.4205V28.0274C32.4765 27.7472 32.2494 27.52 31.9692 27.52C31.6891 27.52 31.4619 27.7472 31.4619 28.0274V28.4281C31.0775 28.5056 30.7166 28.6678 30.4259 28.9042C29.9791 29.2675 29.6957 29.7949 29.7277 30.4526C29.7597 31.1134 30.0895 31.5566 30.5486 31.8563C30.9488 32.1176 31.4403 32.2527 31.8935 32.3271C32.2575 32.3869 32.6462 32.4813 32.9414 32.6596C33.1776 32.8022 33.355 33.0106 33.3929 33.3229C33.398 33.3645 33.4007 33.3947 33.4011 33.414C33.407 33.6623 33.2883 33.8515 33.1099 33.9868C32.8866 34.1563 32.573 34.2562 32.2594 34.2942C32.1741 34.3046 32.0995 34.3105 32.0362 34.312L32.0121 34.3124C31.9979 34.3112 31.9836 34.3106 31.9692 34.3106C31.9571 34.3104 31.945 34.3109 31.9331 34.3117ZM29.4956 21.0297L28.5429 20.077C28.0968 19.6308 28.0968 18.9008 28.5429 18.4547C28.9223 18.0752 29.523 18.0111 29.9745 18.3009C30.1423 18.4086 30.3349 18.4257 30.5189 18.3495C30.7029 18.2733 30.8269 18.1251 30.8694 17.9303C30.9819 17.4154 31.4429 17.0267 31.9904 17.0266C32.5279 17.0266 32.9968 17.4055 33.1113 17.9303C33.1538 18.1251 33.2779 18.2733 33.4619 18.3495C33.646 18.4258 33.8386 18.4086 34.0062 18.3009C34.4498 18.0162 35.0507 18.0676 35.4378 18.4546V18.4547C35.8839 18.9009 35.8839 19.6309 35.4378 20.077L34.4851 21.0297L34.4803 21.0296H29.5003L29.4956 21.0297Z" fill="white"/>
</g>
<defs>
<clipPath id="clip0_912_9449">
<rect width="28" height="28" fill="white" transform="translate(12 12)"/>
</clipPath>
</defs>
</svg>
