<svg width="20" height="20" viewBox="0 0 20 20" fill="none" xmlns="http://www.w3.org/2000/svg">
<path d="M11.475 14.9062C10.8031 16.2719 10.1812 16.5 10 16.5C9.81875 16.5 9.19688 16.2719 8.525 14.9062C7.99375 13.8281 7.6125 12.3562 7.52187 10.75H12.4781C12.3844 12.3594 12.0031 13.8313 11.475 14.9062ZM12.4781 9.25H7.52187C7.61562 7.64062 7.99688 6.16875 8.525 5.09375C9.19688 3.72812 9.81875 3.5 10 3.5C10.1812 3.5 10.8031 3.72812 11.475 5.09375C12.0063 6.17188 12.3875 7.64375 12.4781 9.25ZM13.9812 10.75H16.4563C16.1875 13.0813 14.6844 15.0406 12.6187 15.95C13.3687 14.6125 13.8781 12.75 13.9812 10.75ZM16.4563 9.25H13.9812C13.8781 7.25 13.3687 5.3875 12.6187 4.05C14.6844 4.9625 16.1875 6.91875 16.4563 9.25ZM6.01875 9.25H3.54375C3.8125 6.91875 5.31562 4.95937 7.38125 4.05C6.63125 5.3875 6.12188 7.25 6.01875 9.25ZM3.54375 10.75H6.01875C6.12188 12.75 6.63125 14.6125 7.38125 15.95C5.31562 15.0375 3.8125 13.0813 3.54375 10.75ZM10 18C12.1217 18 14.1566 17.1571 15.6569 15.6569C17.1571 14.1566 18 12.1217 18 10C18 7.87827 17.1571 5.84344 15.6569 4.34315C14.1566 2.84285 12.1217 2 10 2C7.87827 2 5.84344 2.84285 4.34315 4.34315C2.84285 5.84344 2 7.87827 2 10C2 12.1217 2.84285 14.1566 4.34315 15.6569C5.84344 17.1571 7.87827 18 10 18Z" fill="#007E77"/>
</svg>
