<svg width="20" height="20" viewBox="0 0 20 20" fill="none" xmlns="http://www.w3.org/2000/svg">
<path d="M5.5 7.89375C5.5 5.49063 7.49062 3.5 10 3.5C12.5094 3.5 14.5 5.49063 14.5 7.89375C14.5 9.31875 13.7563 11.0656 12.6594 12.8031C11.775 14.2031 10.7531 15.4531 10 16.3062C9.24687 15.4531 8.22813 14.2063 7.34063 12.8031C6.24375 11.0688 5.5 9.31875 5.5 7.89375ZM10 2C6.6875 2 4 4.6375 4 7.89375C4 11.6219 7.75625 16.0906 9.325 17.7937C9.69375 18.1938 10.3063 18.1938 10.675 17.7937C12.2438 16.0906 16 11.6219 16 7.89375C16 4.6375 13.3125 2 10 2ZM9 8C9 7.73478 9.10536 7.48043 9.29289 7.29289C9.48043 7.10536 9.73478 7 10 7C10.2652 7 10.5196 7.10536 10.7071 7.29289C10.8946 7.48043 11 7.73478 11 8C11 8.26522 10.8946 8.51957 10.7071 8.70711C10.5196 8.89464 10.2652 9 10 9C9.73478 9 9.48043 8.89464 9.29289 8.70711C9.10536 8.51957 9 8.26522 9 8ZM12.5 8C12.5 7.33696 12.2366 6.70107 11.7678 6.23223C11.2989 5.76339 10.663 5.5 10 5.5C9.33696 5.5 8.70107 5.76339 8.23223 6.23223C7.76339 6.70107 7.5 7.33696 7.5 8C7.5 8.66304 7.76339 9.29893 8.23223 9.76777C8.70107 10.2366 9.33696 10.5 10 10.5C10.663 10.5 11.2989 10.2366 11.7678 9.76777C12.2366 9.29893 12.5 8.66304 12.5 8Z" fill="#007E77"/>
</svg>
