<svg width="150" height="35" viewBox="0 0 150 35" fill="none" xmlns="http://www.w3.org/2000/svg">
<g clip-path="url(#clip0_0_349)">
<path d="M30.6177 7.83673H34.4432V11.6623H30.6177V7.83673Z" fill="#03BFB5"/>
<path d="M30.6006 0.149414H34.4262V3.97499H30.6006V0.149414Z" fill="#03BFB5"/>
<path d="M38.2334 7.80103H42.059V11.6266H38.2334V7.80103Z" fill="#03BFB5"/>
<path d="M34.4258 15.4526H38.2514V19.2782H34.4258V15.4526Z" fill="#03BFB5"/>
<path d="M15.2959 3.97522H19.1215V7.80079H15.2959V3.97522Z" fill="#03BFB5"/>
<path d="M22.9473 3.97522H26.7728V7.80079H22.9473V3.97522Z" fill="#03BFB5"/>
<path d="M22.9482 11.6257V7.80012H19.12V11.6257H15.296V7.80012H11.4704V4.53186C10.1293 4.88066 8.84208 5.41083 7.64432 6.10768C5.35202 7.44111 3.44171 9.34237 2.09742 11.6283C0.733963 13.9476 0.0102036 16.587 1.93609e-06 19.2774V19.3514C-0.00190541 23.1447 1.40552 26.8035 3.94913 29.6176C6.49274 32.4318 9.99113 34.2005 13.7653 34.5807C14.2724 34.6311 14.786 34.6567 15.306 34.6574C15.826 34.6581 16.3397 34.6325 16.8471 34.5807C18.9979 34.3656 21.078 33.6937 22.9482 32.6099C25.2995 31.2474 27.2497 29.2885 28.6017 26.9311C29.288 25.7318 29.8079 24.4446 30.1471 23.105H26.7738V19.2774H22.9577V19.3514C22.9577 19.4898 22.9541 19.627 22.9471 19.7632V15.4513H26.7727V11.6257H22.9482Z" fill="#03BFB5"/>
<path d="M30.6126 19.3517V19.2776C30.6126 19.1006 30.6074 18.9252 30.6011 18.7497V15.4515H26.7739V18.7497C26.7809 18.9248 26.785 19.1008 26.786 19.2776H30.6V19.9537C30.6081 19.7541 30.6123 19.5534 30.6126 19.3517Z" fill="#03BFB5"/>
<path d="M49.1084 0.218933H54.7084L60.1702 13.6948L65.5763 0.218933H71.1489V19.683H66.4078V8.0098L62.0554 19.683H58.2293L53.849 7.98354V19.683H49.1084V0.218933Z" fill="white"/>
<path d="M74.5605 0.218933H79.3017V19.683H74.5605V0.218933Z" fill="white"/>
<path d="M100.15 0.218933V19.683H95.4091L87.4774 7.67836V19.683H82.7368V0.218933H87.4774L95.4091 12.2792V0.218933H100.15Z" fill="white"/>
<path d="M103.589 0.218994H108.33V19.683H103.589V0.218994Z" fill="white"/>
<path d="M129.179 0.218933V19.683H124.438L116.507 7.67678V19.683H111.766V0.218933H116.507L124.438 12.2792V0.218933H129.179Z" fill="white"/>
<path d="M149.668 6.37461H144.428C143.707 5.0714 142.376 4.37857 140.602 4.37857C137.552 4.37857 135.528 6.54165 135.528 9.92336C135.528 13.5278 137.577 15.6347 140.991 15.6347C142.051 15.6828 143.095 15.3686 143.952 14.7437C144.808 14.1188 145.427 13.2207 145.705 12.1973H139.687V8.70525H150V13.1134C149.385 15.1013 148.136 16.8333 146.444 18.0448C144.752 19.2563 142.71 19.8807 140.629 19.8227C134.807 19.8227 130.702 15.7471 130.702 9.92494C130.702 4.1028 134.777 -0.000120683 140.599 -0.000120683C145.259 -0.00222178 148.641 2.38252 149.668 6.37461Z" fill="white"/>
<path d="M49.2565 33.2596C49.1895 33.1953 49.1362 33.1179 49.1001 33.0323C49.064 32.9467 49.0457 32.8546 49.0464 32.7617C49.0461 32.6716 49.0646 32.5824 49.1008 32.4999C49.137 32.4174 49.19 32.3434 49.2565 32.2826C49.3201 32.2179 49.396 32.1666 49.4797 32.1318C49.5634 32.097 49.6533 32.0793 49.744 32.0799C49.8353 32.0779 49.9261 32.0948 50.0107 32.1294C50.0953 32.164 50.1718 32.2156 50.2356 32.281C50.3002 32.3429 50.3514 32.4173 50.3862 32.4997C50.421 32.5821 50.4385 32.6707 50.4379 32.7601C50.4393 32.8524 50.4221 32.9441 50.3874 33.0296C50.3526 33.1152 50.301 33.1929 50.2356 33.2581C50.173 33.3256 50.0969 33.3792 50.0122 33.4154C49.9274 33.4516 49.8361 33.4696 49.744 33.4682C49.6528 33.4686 49.5625 33.4503 49.4786 33.4144C49.3948 33.3785 49.3192 33.3259 49.2565 33.2596Z" fill="white"/>
<path d="M55.9309 33.1019C55.1595 32.7866 54.4993 32.2491 54.0341 31.5576C53.5846 30.8062 53.3472 29.9469 53.3472 29.0712C53.3472 28.1956 53.5846 27.3363 54.0341 26.5849C54.5017 25.8957 55.1612 25.359 55.9309 25.0411C56.8053 24.6779 57.7451 24.4991 58.6917 24.5158C59.7557 24.4901 60.8104 24.7194 61.7678 25.1845C62.603 25.5899 63.2683 26.2773 63.6461 27.1254L62.8393 27.5162C62.5172 26.8327 61.9699 26.2808 61.2892 25.9529C60.4798 25.5642 59.5894 25.374 58.6917 25.3983C57.535 25.3372 56.3915 25.6681 55.4461 26.3374C55.0419 26.6635 54.7216 27.0816 54.5121 27.5568C54.3027 28.0321 54.2101 28.5505 54.2421 29.0689C54.2105 29.5872 54.3033 30.1055 54.5127 30.5806C54.7222 31.0558 55.0422 31.474 55.4461 31.8003C56.3915 32.4696 57.535 32.8005 58.6917 32.7395C59.5894 32.7636 60.4799 32.5733 61.2892 32.1843C61.9702 31.8568 62.5176 31.3048 62.8393 30.6211L63.6461 31.0124C63.2699 31.8594 62.607 32.5467 61.7741 32.9533C60.8148 33.4192 59.7578 33.6483 58.6917 33.6214C57.7458 33.637 56.8065 33.4603 55.9309 33.1019Z" fill="white"/>
<path d="M69.8869 33.1017C69.1155 32.7864 68.4552 32.2489 67.9901 31.5574C67.54 30.8061 67.3022 29.9468 67.3022 29.071C67.3022 28.1952 67.54 27.3359 67.9901 26.5846C68.4575 25.8951 69.117 25.358 69.8869 25.0398C71.6615 24.3423 73.6344 24.3423 75.4091 25.0398C76.1789 25.358 76.8384 25.8951 77.3058 26.5846C77.7554 27.3361 77.9928 28.1954 77.9928 29.071C77.9928 29.9467 77.7554 30.8059 77.3058 31.5574C76.8407 32.2489 76.1805 32.7864 75.4091 33.1017C73.6328 33.791 71.6631 33.791 69.8869 33.1017ZM69.402 31.7974C70.3734 32.4111 71.4989 32.7369 72.648 32.7369C73.797 32.7369 74.9225 32.4111 75.8939 31.7974C76.2977 31.4711 76.6176 31.0529 76.8269 30.5777C77.0363 30.1026 77.129 29.5843 77.0973 29.066C77.129 28.5478 77.0363 28.0295 76.8269 27.5543C76.6176 27.0792 76.2977 26.661 75.8939 26.3346C74.9225 25.7209 73.797 25.3952 72.648 25.3952C71.4989 25.3952 70.3734 25.7209 69.402 26.3346C68.9978 26.6606 68.6776 27.0788 68.4681 27.554C68.2586 28.0292 68.166 28.5477 68.1981 29.066C68.1665 29.5843 68.2593 30.1026 68.4687 30.5778C68.6781 31.0529 68.9981 31.4711 69.402 31.7974Z" fill="white"/>
<path d="M81.5225 24.6426H82.3167L86.1512 29.9878L89.971 24.6426H90.7652V33.4673H89.8827V26.2437L86.479 31.0594H85.8087L82.4154 26.2437V33.4673H81.5225V24.6426Z" fill="white"/>
<path d="M94.6274 33.259C94.5609 33.1944 94.5081 33.117 94.4724 33.0313C94.4368 32.9457 94.4189 32.8537 94.42 32.761C94.4193 32.6711 94.4374 32.5821 94.4732 32.4996C94.5089 32.4171 94.5614 32.343 94.6274 32.282C94.6911 32.218 94.7668 32.1672 94.8502 32.1327C94.9336 32.0982 95.0231 32.0805 95.1133 32.0808C95.2047 32.0788 95.2955 32.0957 95.38 32.1303C95.4646 32.1649 95.5412 32.2165 95.605 32.282C95.6694 32.3439 95.7206 32.4183 95.7553 32.5007C95.7899 32.583 95.8074 32.6716 95.8067 32.761C95.8082 32.8533 95.7911 32.9449 95.7564 33.0305C95.7218 33.116 95.6703 33.1937 95.605 33.259C95.5422 33.3263 95.466 33.3797 95.3813 33.4159C95.2967 33.4521 95.2054 33.4702 95.1133 33.4691C95.0223 33.4691 94.9322 33.4504 94.8487 33.4143C94.7651 33.3781 94.6898 33.3253 94.6274 33.259Z" fill="white"/>
<path d="M103.206 24.6424H103.875L108.111 33.467H107.14L106.169 31.4626L100.912 31.4752L99.9668 33.467H98.9688L103.206 24.6424ZM105.753 30.578L103.547 25.9766L101.341 30.578H105.753Z" fill="white"/>
<path d="M112.196 33.0952C111.555 32.752 111.03 32.2252 110.69 31.5824C110.292 30.8099 110.099 29.9487 110.128 29.0805V24.6425H111.021V29.0805C111.021 30.3152 111.324 31.2291 111.929 31.8219C112.25 32.1237 112.629 32.3578 113.043 32.5105C113.456 32.6632 113.896 32.7312 114.337 32.7107C115.265 32.751 116.174 32.4353 116.877 31.8282C117.528 31.2399 117.854 30.324 117.854 29.0805V24.6425H118.737V29.0805C118.767 29.9581 118.558 30.8274 118.131 31.595C117.757 32.2455 117.198 32.7699 116.524 33.1015C115.835 33.4347 115.077 33.603 114.312 33.5931C113.576 33.604 112.849 33.4329 112.196 33.0952Z" fill="white"/>
</g>
<defs>
<clipPath id="clip0_0_349">
<rect width="150" height="34.6575" fill="white"/>
</clipPath>
</defs>
</svg>
