<svg width="174" height="40" viewBox="0 0 174 40" fill="none" xmlns="http://www.w3.org/2000/svg">
<g clip-path="url(#clip0_0_79)">
<path d="M35.3379 9.04483H39.7532V13.4601H35.3379V9.04483Z" fill="#03BFB5"/>
<path d="M35.3179 0.172868H39.7332V4.58818H35.3179V0.172868Z" fill="#03BFB5"/>
<path d="M44.1274 9.00381H48.5427V13.4191H44.1274V9.00381Z" fill="#03BFB5"/>
<path d="M39.7329 17.8347H44.1482V22.2501H39.7329V17.8347Z" fill="#03BFB5"/>
<path d="M17.6536 4.58834H22.0689V9.00365H17.6536V4.58834Z" fill="#03BFB5"/>
<path d="M26.4845 4.58834H30.8998V9.00365H26.4845V4.58834Z" fill="#03BFB5"/>
<path d="M26.4858 13.4184V9.00306H22.0674V13.4184H17.654V9.00306H13.2386V5.23098C11.6908 5.63355 10.2051 6.24544 8.82274 7.04972C6.17706 8.5887 3.97227 10.7831 2.42075 13.4214C0.847107 16.0982 0.0117765 19.1445 2.23455e-06 22.2496V22.3351C-0.00219914 26.7131 1.62219 30.9359 4.55791 34.1839C7.49363 37.4318 11.5313 39.4732 15.8873 39.912C16.4726 39.9702 17.0653 39.9997 17.6655 40.0005C18.2657 40.0014 18.8586 39.9718 19.4442 39.912C21.9266 39.6638 24.3273 38.8883 26.4858 37.6374C29.1996 36.0648 31.4504 33.804 33.0108 31.0832C33.8029 29.699 34.4029 28.2134 34.7944 26.6673H30.9011V22.2496H26.4967V22.3351C26.4967 22.4947 26.4927 22.6531 26.4846 22.8104V17.8337H30.8999V13.4184H26.4858Z" fill="#03BFB5"/>
<path d="M35.3319 22.3352V22.2497C35.3319 22.0454 35.3259 21.8429 35.3186 21.6404V17.8338H30.9015V21.6404C30.9095 21.8425 30.9142 22.0456 30.9154 22.2497H35.3174V23.0299C35.3267 22.7996 35.3315 22.568 35.3319 22.3352Z" fill="#03BFB5"/>
<path d="M56.6789 0.252954H63.1421L69.4459 15.8063L75.6854 0.252954H82.1171V22.7175H76.6451V9.24483L71.6217 22.7175H67.2058L62.1503 9.21452V22.7175H56.6789V0.252954Z" fill="white"/>
<path d="M86.0543 0.252954H91.5263V22.7175H86.0543V0.252954Z" fill="white"/>
<path d="M115.588 0.252954V22.7175H110.117L100.963 8.86229V22.7175H95.4913V0.252954H100.963L110.117 14.1724V0.252954H115.588Z" fill="white"/>
<path d="M119.558 0.252954H125.029V22.7175H119.558V0.252954Z" fill="white"/>
<path d="M149.092 0.252954V22.7175H143.621L134.467 8.86047V22.7175H128.995V0.252954H134.467L143.621 14.1724V0.252954H149.092Z" fill="white"/>
<path d="M172.74 7.35743H166.692C165.86 5.85333 164.324 5.05369 162.276 5.05369C158.756 5.05369 156.421 7.55022 156.421 11.4532C156.421 15.6133 158.785 18.045 162.726 18.045C163.949 18.1006 165.154 17.7379 166.143 17.0167C167.132 16.2955 167.845 15.2589 168.166 14.0777H161.221V10.0474H173.123V15.135C172.413 17.4294 170.972 19.4284 169.019 20.8267C167.066 22.2249 164.709 22.9456 162.308 22.8786C155.589 22.8786 150.85 18.1747 150.85 11.4551C150.85 4.73541 155.553 1.60108e-06 162.273 1.60108e-06C167.652 -0.00242339 171.555 2.74994 172.74 7.35743Z" fill="white"/>
<path d="M56.8496 38.3869C56.7722 38.3127 56.7108 38.2234 56.6691 38.1246C56.6274 38.0257 56.6063 37.9194 56.6071 37.8122C56.6068 37.7082 56.6281 37.6053 56.6699 37.5101C56.7117 37.4149 56.7729 37.3294 56.8496 37.2593C56.923 37.1846 57.0105 37.1254 57.1072 37.0852C57.2038 37.045 57.3075 37.0246 57.4122 37.0253C57.5177 37.023 57.6224 37.0425 57.72 37.0824C57.8177 37.1224 57.906 37.182 57.9797 37.2575C58.0542 37.3289 58.1133 37.4147 58.1534 37.5098C58.1936 37.6049 58.2139 37.7072 58.2131 37.8104C58.2147 37.9169 58.1949 38.0227 58.1548 38.1215C58.1147 38.2202 58.0551 38.3099 57.9797 38.3851C57.9074 38.4631 57.8195 38.5249 57.7217 38.5667C57.624 38.6085 57.5185 38.6292 57.4122 38.6276C57.307 38.6281 57.2027 38.6069 57.106 38.5655C57.0092 38.5241 56.922 38.4633 56.8496 38.3869Z" fill="white"/>
<path d="M64.553 38.2048C63.6627 37.8409 62.9007 37.2205 62.3638 36.4224C61.845 35.5551 61.571 34.5634 61.571 33.5527C61.571 32.5421 61.845 31.5503 62.3638 30.6831C62.9035 29.8877 63.6646 29.2682 64.553 28.9013C65.5621 28.4822 66.6469 28.2758 67.7394 28.295C68.9674 28.2654 70.1847 28.53 71.2896 29.0668C72.2537 29.5347 73.0215 30.3281 73.4576 31.3069L72.5264 31.7579C72.1546 30.9691 71.523 30.3321 70.7373 29.9537C69.8031 29.505 68.7754 29.2855 67.7394 29.3135C66.4044 29.2431 65.0846 29.625 63.9934 30.3975C63.5269 30.7738 63.1573 31.2564 62.9155 31.8049C62.6738 32.3534 62.5669 32.9518 62.6039 33.55C62.5674 34.1482 62.6745 34.7464 62.9162 35.2948C63.1579 35.8432 63.5273 36.3259 63.9934 36.7025C65.0846 37.475 66.4044 37.8569 67.7394 37.7865C68.7755 37.8143 69.8032 37.5946 70.7373 37.1457C71.5233 36.7677 72.155 36.1306 72.5264 35.3415L73.4576 35.7931C73.0233 36.7707 72.2582 37.5639 71.2969 38.0332C70.1898 38.5709 68.9698 38.8354 67.7394 38.8044C66.6476 38.8223 65.5636 38.6183 64.553 38.2048Z" fill="white"/>
<path d="M80.6601 38.2042C79.7697 37.8403 79.0077 37.2199 78.4709 36.4218C77.9514 35.5548 77.677 34.5629 77.677 33.5522C77.677 32.5414 77.9514 31.5496 78.4709 30.6825C79.0103 29.8867 79.7715 29.2667 80.6601 28.8995C82.7083 28.0945 84.9853 28.0945 87.0335 28.8995C87.9221 29.2667 88.6833 29.8867 89.2227 30.6825C89.7416 31.5498 90.0156 32.5415 90.0156 33.5522C90.0156 34.5628 89.7416 35.5545 89.2227 36.4218C88.6859 37.2199 87.9239 37.8403 87.0335 38.2042C84.9835 38.9997 82.7101 38.9997 80.6601 38.2042ZM80.1005 36.6989C81.2217 37.4072 82.5206 37.7831 83.8468 37.7831C85.173 37.7831 86.4719 37.4072 87.5931 36.6989C88.0592 36.3222 88.4284 35.8395 88.67 35.2911C88.9116 34.7427 89.0186 34.1445 88.982 33.5464C89.0186 32.9483 88.9116 32.3501 88.67 31.8017C88.4284 31.2533 88.0592 30.7706 87.5931 30.3939C86.4719 29.6856 85.173 29.3097 83.8468 29.3097C82.5206 29.3097 81.2217 29.6856 80.1005 30.3939C79.6339 30.7702 79.2643 31.2528 79.0226 31.8013C78.7808 32.3497 78.674 32.9482 78.711 33.5464C78.6745 34.1446 78.7816 34.7428 79.0233 35.2912C79.265 35.8396 79.6343 36.3223 80.1005 36.6989Z" fill="white"/>
<path d="M94.0893 28.4413H95.0059L99.4315 34.6104L103.84 28.4413H104.757V38.6262H103.738V30.2891L99.8098 35.8472H99.0363L95.1199 30.2891V38.6262H94.0893V28.4413Z" fill="white"/>
<path d="M109.215 38.3861C109.138 38.3116 109.077 38.2222 109.036 38.1234C108.995 38.0245 108.974 37.9184 108.976 37.8113C108.975 37.7076 108.996 37.6048 109.037 37.5096C109.078 37.4144 109.139 37.3289 109.215 37.2584C109.288 37.1846 109.376 37.126 109.472 37.0862C109.568 37.0463 109.672 37.026 109.776 37.0262C109.881 37.024 109.986 37.0435 110.084 37.0834C110.181 37.1234 110.27 37.1829 110.343 37.2584C110.418 37.3299 110.477 37.4158 110.517 37.5109C110.557 37.6059 110.577 37.7082 110.576 37.8113C110.578 37.9179 110.558 38.0236 110.518 38.1224C110.478 38.2211 110.419 38.3108 110.343 38.3861C110.271 38.4637 110.183 38.5254 110.085 38.5672C109.987 38.6089 109.882 38.6298 109.776 38.6286C109.671 38.6285 109.567 38.607 109.47 38.5653C109.374 38.5236 109.287 38.4626 109.215 38.3861Z" fill="white"/>
<path d="M119.116 28.4413H119.888L124.777 38.6262H123.656L122.536 36.3128L116.469 36.3273L115.377 38.6262H114.226L119.116 28.4413ZM122.056 35.2919L119.51 29.9811L116.963 35.2919H122.056Z" fill="white"/>
<path d="M129.492 38.197C128.752 37.8009 128.146 37.193 127.754 36.451C127.295 35.5595 127.072 34.5655 127.106 33.5634V28.4413H128.136V33.5634C128.136 34.9885 128.485 36.0432 129.184 36.7275C129.555 37.0757 129.992 37.346 130.469 37.5222C130.947 37.6984 131.455 37.777 131.963 37.7532C133.034 37.7998 134.083 37.4355 134.895 36.7347C135.646 36.0557 136.022 34.9986 136.022 33.5634V28.4413H137.041V33.5634C137.076 34.5763 136.835 35.5796 136.342 36.4656C135.91 37.2164 135.264 37.8216 134.487 38.2043C133.692 38.5889 132.817 38.7831 131.934 38.7717C131.085 38.7842 130.246 38.5868 129.492 38.197Z" fill="white"/>
</g>
<defs>
<clipPath id="clip0_0_79">
<rect width="173.106" height="39.9962" fill="white"/>
</clipPath>
</defs>
</svg>
