<svg width="20" height="20" viewBox="0 0 20 20" fill="none" xmlns="http://www.w3.org/2000/svg">
<path d="M9.18099 8.81582L11.1872 10.8221L5.80911 15.7346C5.61224 15.9158 5.30599 15.9064 5.11849 15.7189L4.28411 14.8846C4.09661 14.6939 4.08724 14.3908 4.26849 14.1939L9.18099 8.81582ZM12.3622 9.8752L10.1279 7.64082L10.1247 7.1877C10.1216 6.66895 10.3154 6.15332 10.7091 5.75645L10.8904 5.5752L14.4247 9.10957L14.2435 9.29082C13.8497 9.68457 13.3341 9.88145 12.8122 9.8752L12.3591 9.87207L12.3622 9.8752ZM11.9591 4.5252C12.9404 3.7252 14.3904 3.78145 15.306 4.69707C16.2216 5.6127 16.2779 7.05957 15.4779 8.04395L11.9591 4.5252ZM16.3654 3.6377C14.8029 2.0752 12.2716 2.0752 10.7091 3.6377L9.64974 4.69707C8.95911 5.3877 8.61849 6.29395 8.62474 7.2002L3.16224 13.1814C2.44036 13.9689 2.46849 15.1877 3.22474 15.9439L4.05599 16.7783C4.81224 17.5346 6.03099 17.5658 6.82161 16.8439L9.25599 14.6221V18.2533C9.25599 18.6689 9.59036 19.0033 10.006 19.0033C10.4216 19.0033 10.756 18.6689 10.756 18.2533V13.2533L12.806 11.3814C13.7122 11.3877 14.6185 11.0471 15.3091 10.3564L16.3685 9.29707C17.931 7.73457 17.931 5.20332 16.3685 3.64082L16.3654 3.6377Z" fill="#007E77"/>
</svg>
