<svg width="20" height="20" viewBox="0 0 20 20" fill="none" xmlns="http://www.w3.org/2000/svg">
<path d="M4.6625 3.9591C5.07812 4.32472 5.11562 4.95598 4.75 5.3716C3.65937 6.60598 3 8.22472 3 10.0029C3 11.781 3.65937 13.3997 4.75 14.6341C5.11562 15.0497 5.075 15.681 4.6625 16.0466C4.25 16.4122 3.61562 16.3685 3.25 15.9529C1.85 14.3685 1 12.281 1 9.99972C1 7.71847 1.85 5.63098 3.25 4.0466C3.61562 3.63097 4.24687 3.59347 4.6625 3.9591ZM15.3406 3.9591C15.7531 3.59347 16.3844 3.63097 16.75 4.0466C18.15 5.63098 19 7.71847 19 9.99972C19 12.281 18.15 14.3685 16.75 15.9529C16.3844 16.3654 15.7531 16.406 15.3375 16.0403C14.9219 15.6747 14.8844 15.0435 15.25 14.6279C16.3406 13.3935 17 11.7747 17 9.9966C17 8.21847 16.3406 6.59972 15.25 5.36535C14.8844 4.94972 14.925 4.31847 15.3375 3.95285L15.3406 3.9591ZM8.5 9.99972C8.5 9.6019 8.65804 9.22037 8.93934 8.93906C9.22064 8.65776 9.60218 8.49972 10 8.49972C10.3978 8.49972 10.7794 8.65776 11.0607 8.93906C11.342 9.22037 11.5 9.6019 11.5 9.99972C11.5 10.3975 11.342 10.7791 11.0607 11.0604C10.7794 11.3417 10.3978 11.4997 10 11.4997C9.60218 11.4997 9.22064 11.3417 8.93934 11.0604C8.65804 10.7791 8.5 10.3975 8.5 9.99972ZM7.39062 7.66535C6.83437 8.2841 6.5 9.10285 6.5 9.99972C6.5 10.8966 6.8375 11.7122 7.39062 12.3341C7.75938 12.7466 7.725 13.3779 7.3125 13.7466C6.9 14.1153 6.26875 14.081 5.9 13.6685C5.03125 12.6935 4.5 11.4091 4.5 9.99972C4.5 8.59035 5.03125 7.30597 5.9 6.3341C6.26875 5.9216 6.9 5.88722 7.3125 6.25597C7.725 6.62472 7.75938 7.25597 7.39062 7.66847V7.66535ZM14.1 6.33098C14.9688 7.30597 15.5 8.59035 15.5 9.99972C15.5 11.4091 14.9688 12.6935 14.1 13.6653C13.7313 14.0779 13.1 14.1122 12.6875 13.7435C12.275 13.3747 12.2406 12.7435 12.6094 12.331C13.1656 11.7122 13.5 10.8935 13.5 9.9966C13.5 9.09972 13.1625 8.2841 12.6094 7.66222C12.2406 7.24972 12.275 6.61847 12.6875 6.24972C13.1 5.88097 13.7313 5.91535 14.1 6.32785V6.33098Z" fill="white"/>
</svg>
