<svg width="20" height="20" viewBox="0 0 20 20" fill="none" xmlns="http://www.w3.org/2000/svg">
<path d="M5 14C4.73478 14 4.48043 13.8946 4.29289 13.7071C4.10536 13.5196 4 13.2652 4 13C4 12.7348 4.10536 12.4804 4.29289 12.2929C4.48043 12.1054 4.73478 12 5 12C5.26522 12 5.51957 12.1054 5.70711 12.2929C5.89464 12.4804 6 12.7348 6 13C6 13.2652 5.89464 13.5196 5.70711 13.7071C5.51957 13.8946 5.26522 14 5 14ZM7.82812 12C7.41563 10.8344 6.30625 10 5 10C3.34375 10 2 11.3438 2 13C2 14.6562 3.34375 16 5 16C6.30625 16 7.41875 15.1656 7.82812 14H17C17.5531 14 18 13.5531 18 13C18 12.4469 17.5531 12 17 12H7.82812ZM16 7C16 7.26522 15.8946 7.51957 15.7071 7.70711C15.5196 7.89464 15.2652 8 15 8C14.7348 8 14.4804 7.89464 14.2929 7.70711C14.1054 7.51957 14 7.26522 14 7C14 6.73478 14.1054 6.48043 14.2929 6.29289C14.4804 6.10536 14.7348 6 15 6C15.2652 6 15.5196 6.10536 15.7071 6.29289C15.8946 6.48043 16 6.73478 16 7ZM12.1719 6H3C2.44687 6 2 6.44688 2 7C2 7.55312 2.44687 8 3 8H12.1719C12.5844 9.16563 13.6938 10 15 10C16.6562 10 18 8.65625 18 7C18 5.34375 16.6562 4 15 4C13.6938 4 12.5813 4.83438 12.1719 6Z" fill="#292929"/>
</svg>
