<svg width="176" height="32" viewBox="0 0 176 32" fill="none" xmlns="http://www.w3.org/2000/svg">
<path d="M31.9883 16C31.9883 24.0807 26.0002 30.7612 18.2211 31.8453C17.4937 31.9462 16.7495 31.9989 15.9942 31.9989C15.1222 31.9989 14.266 31.9294 13.4321 31.7948C5.81667 30.5684 0 23.963 0 16C0 7.16368 7.16156 0 15.9953 0C24.829 0 31.9906 7.16368 31.9906 16H31.9883Z" fill="#03BFB5"/>
<path d="M6.48638 7.05566L13.8631 16.9211L6.44043 24.9424H8.11147L14.6107 17.92L19.8614 24.9424H25.5469L17.7555 14.522L24.6649 7.05566H22.9938L17.0091 13.5232L12.173 7.05566H6.48749H6.48638ZM8.94305 8.28661H11.5544L23.088 23.7115H20.4767L8.94305 8.28661Z" fill="white"/>
<path d="M64.0175 0H63.9447C55.1309 0 47.9858 7.14713 47.9858 15.9636V16.0364C47.9858 24.8528 55.1309 32 63.9447 32H64.0175C72.8314 32 79.9764 24.8528 79.9764 16.0364V15.9636C79.9764 7.14713 72.8314 0 64.0175 0Z" fill="#03BFB5"/>
<path d="M55.6149 10.6376C55.1935 10.2463 54.9839 9.762 54.9839 9.18575C54.9839 8.6095 55.1946 8.10388 55.6149 7.71149C56.0363 7.32022 56.5788 7.12402 57.2434 7.12402C57.908 7.12402 58.4292 7.32022 58.8495 7.71149C59.2709 8.10276 59.4805 8.59492 59.4805 9.18575C59.4805 9.77658 59.2698 10.2463 58.8495 10.6376C58.4281 11.0289 57.8934 11.2251 57.2434 11.2251C56.5933 11.2251 56.0363 11.0289 55.6149 10.6376ZM59.1263 12.8821V24.878H55.3369V12.8821H59.1263Z" fill="#FEFFFC"/>
<path d="M71.7412 14.067C72.5672 14.9639 72.9796 16.1949 72.9796 17.7622V24.666H69.3808V18.2488C69.3808 17.4584 69.1757 16.844 68.7666 16.4068C68.3575 15.9696 67.8061 15.7498 67.1157 15.7498C66.4253 15.7498 65.8739 15.9684 65.4648 16.4068C65.0557 16.844 64.8506 17.4584 64.8506 18.2488V24.666H61.2305V12.8484H64.8506V14.4157C65.2171 13.8932 65.7114 13.4807 66.3323 13.1769C66.9532 12.873 67.6514 12.7217 68.4281 12.7217C69.8112 12.7217 70.9163 13.1701 71.7412 14.067Z" fill="#FEFFFC"/>
<path d="M127.962 16C127.962 7.16344 120.801 0 111.967 0C103.133 0 95.9717 7.16344 95.9717 16C95.9717 24.8366 103.133 32 111.967 32C120.801 32 127.962 24.8366 127.962 16Z" fill="#03BFB5"/>
<path d="M118.757 23.0866C118.28 23.1383 117.792 23.1473 117.325 23.1461C113.678 23.1428 110.03 23.1394 106.384 23.1371C105.236 23.1371 103.987 23.1 103.1 22.3704C102.101 21.5463 101.893 20.1173 101.812 18.8243C101.699 17.0524 101.69 15.2749 101.782 13.5018C101.833 12.5282 101.922 11.5309 102.341 10.6495C102.642 10.0165 103.145 9.44759 103.788 9.14853C104.535 8.80112 105.317 8.86295 106.122 8.86183C108.049 8.85958 109.975 8.85846 111.902 8.85621C113.905 8.85396 115.909 8.85283 117.912 8.85059C118.858 8.85059 119.874 8.8697 120.646 9.41724C121.643 10.1233 121.914 11.4668 122.039 12.6822C122.269 14.9207 122.273 17.1828 122.048 19.4213C121.954 20.3444 121.799 21.3203 121.191 22.0207C120.589 22.7155 119.695 22.9831 118.758 23.0854L118.757 23.0866Z" fill="white"/>
<path d="M115.228 16.0004L109.793 12.8613V19.1395L115.228 16.0004Z" fill="#03BFB5"/>
<path d="M175.948 16.0006C175.948 24.0816 169.96 30.7623 162.18 31.8464C161.453 31.9473 160.709 32 159.953 32C159.081 32 158.225 31.9305 157.391 31.7959C149.774 30.5694 143.958 23.9638 143.958 16.0006C143.958 7.16393 151.119 0 159.952 0C168.785 0 175.948 7.16393 175.948 16.0006Z" fill="#03BFB5"/>
<path d="M162.053 12.688V16.1736H166.363L165.681 20.8688H162.053V31.6864C161.325 31.7873 160.581 31.84 159.826 31.84C158.954 31.84 158.097 31.7705 157.264 31.636V20.8688H153.288V16.1736H157.264V11.9088C157.264 9.263 159.408 7.11719 162.054 7.11719V7.11943C162.062 7.11943 162.068 7.11719 162.076 7.11719H166.364V11.1779H163.562C162.73 11.1779 162.054 11.8539 162.054 12.6869L162.053 12.688Z" fill="white"/>
</svg>
