<svg width="20" height="20" viewBox="0 0 20 20" fill="none" xmlns="http://www.w3.org/2000/svg">
<path d="M2.5 6V7.40312C3.39687 7.92187 4 8.89062 4 10C4 11.1094 3.39687 12.0813 2.5 12.5969V14C2.5 14.275 2.725 14.5 3 14.5H17C17.275 14.5 17.5 14.275 17.5 14V12.5969C16.6031 12.0781 16 11.1094 16 10C16 8.89062 16.6031 7.91875 17.5 7.40312V6C17.5 5.725 17.275 5.5 17 5.5H3C2.725 5.5 2.5 5.725 2.5 6ZM1 6C1 4.89688 1.89688 4 3 4H17C18.1031 4 19 4.89688 19 6V8C19 8.275 18.7687 8.49063 18.5094 8.58125C17.9219 8.78438 17.5 9.34375 17.5 10C17.5 10.6562 17.9219 11.2156 18.5094 11.4187C18.7687 11.5094 19 11.725 19 12V14C19 15.1031 18.1031 16 17 16H3C1.89688 16 1 15.1031 1 14V12C1 11.725 1.23125 11.5094 1.49062 11.4187C2.07812 11.2156 2.5 10.6562 2.5 10C2.5 9.34375 2.07812 8.78438 1.49062 8.58125C1.23125 8.49063 1 8.275 1 8V6ZM13.5 11.5V8.5H6.5V11.5H13.5ZM5 8C5 7.44688 5.44688 7 6 7H14C14.5531 7 15 7.44688 15 8V12C15 12.5531 14.5531 13 14 13H6C5.44688 13 5 12.5531 5 12V8Z" fill="#007E77"/>
</svg>
